G04 Generated by Ultiboard 14.1 *
%FSLAX34Y34*%
%MOMM*%

%ADD10C,0.0001*%
%ADD11C,0.0010*%
%ADD12C,0.2540*%
%ADD13C,0.6000*%
%ADD14C,3.0000*%
%ADD15C,0.1270*%
%ADD16R,0.6000X2.0000*%
%ADD17R,1.1500X1.4500*%
%ADD18R,1.0500X1.4000*%
%ADD19C,2.6000*%
%ADD20O,0.6500X1.8500*%
%ADD21R,1.4000X1.0500*%
%ADD22R,4.5000X2.1000*%
%ADD23R,1.2500X2.8500*%
%ADD24R,5.5500X6.4000*%
%ADD25R,1.0000X2.8500*%
%ADD26R,5.5500X6.6000*%
%ADD27R,2.1000X4.5000*%


G04 ColorRGB 00FF00 for the following layer *
%LNCopper Top*%
%LPD*%
G54D10*
G36*
X575298Y1249683D02*
X575298Y1249683D01*
X575298Y485157D01*
X477520Y485157D01*
X477520Y647700D01*
X34302Y647700D01*
X34302Y1249683D01*
X575298Y1249683D01*
D02*
G37*
%LPC*%
G36*
X74989Y693991D02*
G74*
D01*
G03X74738Y692320I5431J1671*
G01*
X74738Y692320D01*
X74738Y680320D01*
G75*
D01*
G03X86102Y680320I5682J0*
G01*
X86102Y680320D01*
X86102Y692320D01*
G74*
D01*
G03X85851Y693991I5682J0*
G01*
X85851Y693991D01*
X85851Y733450D01*
G74*
D01*
G03X84937Y736466I5431J0*
G01*
X84937Y736466D01*
X84937Y743600D01*
G74*
D01*
G03X82701Y746010I2417J0*
G01*
X82701Y746010D01*
X82701Y806650D01*
G74*
D01*
G03X81104Y810497I5431J0*
G01*
X81104Y810497D01*
X63851Y827750D01*
X63851Y879387D01*
G75*
D01*
G03X66040Y878886I2189J4533*
G01*
X66040Y878886D01*
X287020Y878886D01*
G75*
D01*
G03X292054Y883920I0J5034*
G01*
X292054Y883920D01*
X292054Y929035D01*
G75*
D01*
G03X292054Y960725I-6174J15845*
G01*
X292054Y960725D01*
X292054Y1016000D01*
G74*
D01*
G03X287020Y1021034I5034J0*
G01*
X287020Y1021034D01*
X223778Y1021034D01*
G74*
D01*
G03X221980Y1021837I1798J1614*
G01*
X221980Y1021837D01*
X188777Y1021837D01*
X208463Y1041523D01*
X208463Y1038170D01*
G75*
D01*
G03X210880Y1035753I2417J0*
G01*
X210880Y1035753D01*
X223380Y1035753D01*
G75*
D01*
G03X225797Y1038170I0J2417*
G01*
X225797Y1038170D01*
X225797Y1066670D01*
G74*
D01*
G03X223380Y1069087I2417J0*
G01*
X223380Y1069087D01*
X210880Y1069087D01*
G75*
D01*
G03X208463Y1066670I0J-2417*
G01*
X208463Y1066670D01*
X208463Y1056796D01*
G74*
D01*
G03X207840Y1056260I3217J4376*
G01*
X207840Y1056260D01*
X181430Y1029851D01*
X77000Y1029851D01*
G75*
D01*
G03X75832Y1029724I0J-5431*
G01*
G74*
D01*
G03X73160Y1028260I1168J5304*
G01*
X73160Y1028260D01*
X54580Y1009680D01*
G75*
D01*
G03X52989Y1005828I3840J-3840*
G01*
X52989Y1005828D01*
X52989Y825509D01*
G75*
D01*
G03X54580Y821660I5431J-9*
G01*
X54580Y821660D01*
X71839Y804400D01*
X71839Y746010D01*
G74*
D01*
G03X69603Y743600I181J2410*
G01*
X69603Y743600D01*
X69603Y729600D01*
G75*
D01*
G03X72020Y727183I2417J0*
G01*
X72020Y727183D01*
X74989Y727183D01*
X74989Y693991D01*
D02*
G37*
G36*
X325338Y1209040D02*
X325338Y1209040D01*
X325338Y1202342D01*
X217040Y1202342D01*
G75*
D01*
G03X215755Y1202301I0J-20102*
G01*
G74*
D01*
G03X202826Y1196454I1285J20061*
G01*
X202826Y1196454D01*
X198807Y1192435D01*
X157116Y1150744D01*
G75*
D01*
G03X151228Y1136504I14214J-14214*
G01*
X151228Y1136504D01*
X151228Y1052420D01*
G75*
D01*
G03X191432Y1052420I20102J0*
G01*
X191432Y1052420D01*
X191432Y1072373D01*
X194870Y1072373D01*
G75*
D01*
G03X197287Y1074790I0J2417*
G01*
X197287Y1074790D01*
X197287Y1089290D01*
G74*
D01*
G03X194870Y1091707I2417J0*
G01*
X194870Y1091707D01*
X191432Y1091707D01*
X191432Y1128204D01*
X225366Y1162138D01*
X325338Y1162138D01*
X325338Y1158240D01*
G75*
D01*
G03X365542Y1158240I20102J0*
G01*
X365542Y1158240D01*
X365542Y1162138D01*
X391854Y1162138D01*
X414238Y1139754D01*
X414238Y1133546D01*
X389606Y1108914D01*
G75*
D01*
G03X383718Y1094679I14214J-14214*
G01*
X383718Y1094679D01*
X383718Y1052420D01*
G75*
D01*
G03X423922Y1052420I20102J0*
G01*
X423922Y1052420D01*
X423922Y1086374D01*
X448542Y1110994D01*
G75*
D01*
G03X454442Y1125220I-14202J14226*
G01*
X454442Y1125220D01*
X454442Y1148080D01*
G74*
D01*
G03X448542Y1162306I20102J0*
G01*
X448542Y1162306D01*
X418413Y1192435D01*
X414406Y1196442D01*
G74*
D01*
G03X400180Y1202342I14226J14202*
G01*
X400180Y1202342D01*
X365542Y1202342D01*
X365542Y1209040D01*
G75*
D01*
G03X325338Y1209040I-20102J0*
G01*
D02*
G37*
G36*
X300550Y727183D02*
G75*
D01*
G03X302967Y729600I0J2417*
G01*
X302967Y729600D01*
X302967Y743600D01*
G74*
D01*
G03X300731Y746010I2417J0*
G01*
X300731Y746010D01*
X300731Y752790D01*
X312130Y764189D01*
X358140Y764189D01*
G74*
D01*
G03X361987Y765786I0J5431*
G01*
X361987Y765786D01*
X405154Y808953D01*
G75*
D01*
G03X406751Y812800I-3834J3847*
G01*
X406751Y812800D01*
X406751Y835913D01*
X408820Y835913D01*
G75*
D01*
G03X411237Y838330I0J2417*
G01*
X411237Y838330D01*
X411237Y866830D01*
G74*
D01*
G03X408820Y869247I2417J0*
G01*
X408820Y869247D01*
X398820Y869247D01*
G75*
D01*
G03X396403Y866830I0J-2417*
G01*
X396403Y866830D01*
X396403Y852387D01*
G75*
D01*
G03X395889Y850073I4917J-2307*
G01*
X395889Y850073D01*
X395889Y815050D01*
X355890Y775051D01*
X309885Y775051D01*
G75*
D01*
G03X306040Y773460I-5J-5431*
G01*
X306040Y773460D01*
X291460Y758880D01*
G75*
D01*
G03X289869Y755033I3840J-3840*
G01*
X289869Y755033D01*
X289869Y746010D01*
G74*
D01*
G03X287633Y743600I181J2410*
G01*
X287633Y743600D01*
X287633Y729600D01*
G75*
D01*
G03X288969Y727439I2417J0*
G01*
X288969Y727439D01*
X288969Y693991D01*
G74*
D01*
G03X288718Y692320I5431J1671*
G01*
X288718Y692320D01*
X288718Y680320D01*
G75*
D01*
G03X300082Y680320I5682J0*
G01*
X300082Y680320D01*
X300082Y692320D01*
G74*
D01*
G03X299831Y693991I5682J0*
G01*
X299831Y693991D01*
X299831Y727183D01*
X300550Y727183D01*
D02*
G37*
G36*
X456268Y1021034D02*
G74*
D01*
G03X454470Y1021837I1798J1614*
G01*
X454470Y1021837D01*
X398970Y1021837D01*
G75*
D01*
G03X397172Y1021034I0J-2417*
G01*
X397172Y1021034D01*
X335280Y1021034D01*
G75*
D01*
G03X330246Y1016000I0J-5034*
G01*
X330246Y1016000D01*
X330246Y961492D01*
G75*
D01*
G03X330246Y928268I3634J-16612*
G01*
X330246Y928268D01*
X330246Y883920D01*
G75*
D01*
G03X335280Y878886I5034J0*
G01*
X335280Y878886D01*
X515620Y878886D01*
G75*
D01*
G03X520654Y883920I0J5034*
G01*
X520654Y883920D01*
X520654Y1016000D01*
G74*
D01*
G03X515620Y1021034I5034J0*
G01*
X515620Y1021034D01*
X456268Y1021034D01*
D02*
G37*
G36*
X202251Y728424D02*
G75*
D01*
G03X202557Y729600I-2111J1176*
G01*
X202557Y729600D01*
X202557Y743600D01*
G74*
D01*
G03X200321Y746010I2417J0*
G01*
X200321Y746010D01*
X200321Y793170D01*
G74*
D01*
G03X198724Y797017I5431J0*
G01*
X198724Y797017D01*
X176761Y818980D01*
X176761Y835952D01*
G75*
D01*
G03X178747Y838330I-431J2378*
G01*
X178747Y838330D01*
X178747Y866830D01*
G74*
D01*
G03X176330Y869247I2417J0*
G01*
X176330Y869247D01*
X166330Y869247D01*
G75*
D01*
G03X163913Y866830I0J-2417*
G01*
X163913Y866830D01*
X163913Y838330D01*
G75*
D01*
G03X165899Y835952I2417J0*
G01*
X165899Y835952D01*
X165899Y816742D01*
G75*
D01*
G03X167490Y812890I5431J-12*
G01*
X167490Y812890D01*
X189459Y790920D01*
X189459Y746010D01*
G74*
D01*
G03X187223Y743600I181J2410*
G01*
X187223Y743600D01*
X187223Y729600D01*
G75*
D01*
G03X189640Y727183I2417J0*
G01*
X189640Y727183D01*
X191389Y727183D01*
X191389Y693991D01*
G74*
D01*
G03X191138Y692320I5431J1671*
G01*
X191138Y692320D01*
X191138Y680320D01*
G75*
D01*
G03X202502Y680320I5682J0*
G01*
X202502Y680320D01*
X202502Y692320D01*
G74*
D01*
G03X202251Y693991I5682J0*
G01*
X202251Y693991D01*
X202251Y728424D01*
D02*
G37*
G36*
X238409Y737126D02*
X238409Y737126D01*
X238409Y710707D01*
X231850Y710707D01*
G75*
D01*
G03X229433Y708290I0J-2417*
G01*
X229433Y708290D01*
X229433Y693790D01*
G75*
D01*
G03X231850Y691373I2417J0*
G01*
X231850Y691373D01*
X238409Y691373D01*
X238409Y678531D01*
X226060Y678531D01*
G75*
D01*
G03X224489Y678299I0J-5431*
G01*
G74*
D01*
G03X222220Y676940I1571J5199*
G01*
X222220Y676940D01*
X211110Y665831D01*
X189551Y665831D01*
X189551Y678649D01*
G75*
D01*
G03X189802Y680320I-5431J1671*
G01*
X189802Y680320D01*
X189802Y692320D01*
G75*
D01*
G03X178438Y692320I-5682J0*
G01*
X178438Y692320D01*
X178438Y680320D01*
G75*
D01*
G03X178689Y678649I5682J0*
G01*
X178689Y678649D01*
X178689Y665831D01*
X162270Y665831D01*
X118579Y709522D01*
X101701Y726400D01*
X101701Y727190D01*
G75*
D01*
G03X103937Y729600I-181J2410*
G01*
X103937Y729600D01*
X103937Y743600D01*
G74*
D01*
G03X101520Y746017I2417J0*
G01*
X101520Y746017D01*
X91020Y746017D01*
G75*
D01*
G03X88603Y743600I0J-2417*
G01*
X88603Y743600D01*
X88603Y729600D01*
G75*
D01*
G03X90839Y727190I2417J0*
G01*
X90839Y727190D01*
X90839Y724161D01*
G75*
D01*
G03X92430Y720310I5431J-11*
G01*
X92430Y720310D01*
X100304Y712435D01*
X156180Y656560D01*
G74*
D01*
G03X158270Y655259I3840J3840*
G01*
G75*
D01*
G03X160020Y654969I1750J5141*
G01*
X160020Y654969D01*
X182872Y654969D01*
G75*
D01*
G03X182888Y654969I8J5431*
G01*
X182888Y654969D01*
X213355Y654969D01*
G75*
D01*
G03X214503Y655090I5J5431*
G01*
G74*
D01*
G03X217207Y656566I1143J5310*
G01*
X217207Y656566D01*
X228310Y667669D01*
X249210Y667669D01*
X260320Y656560D01*
G74*
D01*
G03X262589Y655201I3840J3840*
G01*
G75*
D01*
G03X264160Y654969I1571J5199*
G01*
X264160Y654969D01*
X307335Y654969D01*
G75*
D01*
G03X308483Y655090I5J5431*
G01*
G74*
D01*
G03X311187Y656566I1143J5310*
G01*
X311187Y656566D01*
X322290Y667669D01*
X348270Y667669D01*
X359380Y656560D01*
G74*
D01*
G03X361649Y655201I3840J3840*
G01*
G75*
D01*
G03X363220Y654969I1571J5199*
G01*
X363220Y654969D01*
X406395Y654969D01*
G75*
D01*
G03X407248Y655035I5J5431*
G01*
G74*
D01*
G03X410247Y656566I848J5365*
G01*
X410247Y656566D01*
X425474Y671793D01*
G74*
D01*
G03X426320Y672883I3834J3847*
G01*
X426320Y672883D01*
X465180Y672883D01*
G75*
D01*
G03X467597Y675300I0J2417*
G01*
X467597Y675300D01*
X467597Y696300D01*
G74*
D01*
G03X465180Y698717I2417J0*
G01*
X465180Y698717D01*
X421484Y698717D01*
X406091Y714110D01*
X406091Y727190D01*
G75*
D01*
G03X408327Y729600I-181J2410*
G01*
X408327Y729600D01*
X408327Y743600D01*
G74*
D01*
G03X405910Y746017I2417J0*
G01*
X405910Y746017D01*
X395410Y746017D01*
G75*
D01*
G03X392993Y743600I0J-2417*
G01*
X392993Y743600D01*
X392993Y729600D01*
G75*
D01*
G03X395229Y727190I2417J0*
G01*
X395229Y727190D01*
X395229Y711870D01*
G75*
D01*
G03X396820Y708020I5431J-10*
G01*
X396820Y708020D01*
X416209Y688630D01*
X416209Y677890D01*
X404150Y665831D01*
X365470Y665831D01*
X354367Y676934D01*
G74*
D01*
G03X351663Y678410I3847J3834*
G01*
G75*
D01*
G03X350515Y678531I-1143J-5310*
G01*
X350515Y678531D01*
X320040Y678531D01*
G75*
D01*
G03X318469Y678299I0J-5431*
G01*
G74*
D01*
G03X316200Y676940I1571J5199*
G01*
X316200Y676940D01*
X305090Y665831D01*
X287131Y665831D01*
X287131Y678649D01*
G75*
D01*
G03X287382Y680320I-5431J1671*
G01*
X287382Y680320D01*
X287382Y692320D01*
G75*
D01*
G03X276018Y692320I-5682J0*
G01*
X276018Y692320D01*
X276018Y680320D01*
G75*
D01*
G03X276269Y678649I5682J0*
G01*
X276269Y678649D01*
X276269Y665831D01*
X266410Y665831D01*
X255307Y676934D01*
G74*
D01*
G03X252603Y678410I3847J3834*
G01*
G75*
D01*
G03X251455Y678531I-1143J-5310*
G01*
X251455Y678531D01*
X249271Y678531D01*
X249271Y737126D01*
G75*
D01*
G03X238409Y737126I-5431J16114*
G01*
D02*
G37*
G36*
X390241Y693991D02*
X390241Y693991D01*
X390241Y733450D01*
G74*
D01*
G03X389327Y736466I5431J0*
G01*
X389327Y736466D01*
X389327Y743600D01*
G74*
D01*
G03X387091Y746010I2417J0*
G01*
X387091Y746010D01*
X387091Y757870D01*
X393410Y764189D01*
X462280Y764189D01*
G74*
D01*
G03X466127Y765786I0J5431*
G01*
X466127Y765786D01*
X477455Y777114D01*
X557554Y857213D01*
G75*
D01*
G03X559151Y861060I-3834J3847*
G01*
X559151Y861060D01*
X559151Y1028700D01*
G74*
D01*
G03X557554Y1032547I5431J0*
G01*
X557554Y1032547D01*
X533847Y1056254D01*
G74*
D01*
G03X531729Y1057569I3847J3834*
G01*
G75*
D01*
G03X529993Y1057851I-1729J-5149*
G01*
X529993Y1057851D01*
X458287Y1057851D01*
X458287Y1066670D01*
G74*
D01*
G03X455870Y1069087I2417J0*
G01*
X455870Y1069087D01*
X443370Y1069087D01*
G75*
D01*
G03X440953Y1066670I0J-2417*
G01*
X440953Y1066670D01*
X440953Y1038170D01*
G75*
D01*
G03X443370Y1035753I2417J0*
G01*
X443370Y1035753D01*
X455870Y1035753D01*
G75*
D01*
G03X458287Y1038170I0J2417*
G01*
X458287Y1038170D01*
X458287Y1046989D01*
X527750Y1046989D01*
X548289Y1026450D01*
X548289Y863310D01*
X477455Y792476D01*
X460030Y775051D01*
X391167Y775051D01*
G75*
D01*
G03X387320Y773460I-7J-5431*
G01*
X387320Y773460D01*
X377820Y763960D01*
G75*
D01*
G03X376229Y760111I3840J-3840*
G01*
X376229Y760111D01*
X376229Y746010D01*
G74*
D01*
G03X373993Y743600I181J2410*
G01*
X373993Y743600D01*
X373993Y729600D01*
G75*
D01*
G03X376410Y727183I2417J0*
G01*
X376410Y727183D01*
X379379Y727183D01*
X379379Y693991D01*
G74*
D01*
G03X379128Y692320I5431J1671*
G01*
X379128Y692320D01*
X379128Y680320D01*
G75*
D01*
G03X390492Y680320I5682J0*
G01*
X390492Y680320D01*
X390492Y692320D01*
G74*
D01*
G03X390241Y693991I5682J0*
G01*
D02*
G37*
G36*
X237455Y804109D02*
G75*
D01*
G03X237455Y804109I6385J-2869*
G01*
D02*
G37*
G36*
X237810Y817140D02*
G74*
D01*
G03X227940Y807270I6030J15900*
G01*
X227940Y807270D01*
X237810Y807270D01*
X237810Y817140D01*
D02*
G37*
G36*
X237810Y785340D02*
X237810Y785340D01*
X237810Y795210D01*
X227940Y795210D01*
G74*
D01*
G03X237810Y785340I15900J6030*
G01*
D02*
G37*
G36*
X237455Y1137109D02*
G75*
D01*
G03X237455Y1137109I6385J-2869*
G01*
D02*
G37*
G36*
X237810Y1150140D02*
G74*
D01*
G03X227940Y1140270I6030J15900*
G01*
X227940Y1140270D01*
X237810Y1140270D01*
X237810Y1150140D01*
D02*
G37*
G36*
X237810Y1118340D02*
X237810Y1118340D01*
X237810Y1128210D01*
X227940Y1128210D01*
G74*
D01*
G03X237810Y1118340I15900J6030*
G01*
D02*
G37*
G36*
X536175Y1229360D02*
G75*
D01*
G03X536175Y1229360I17545J0*
G01*
D02*
G37*
G36*
X225350Y710707D02*
X225350Y710707D01*
X222496Y710707D01*
X222496Y703936D01*
X227767Y703936D01*
X227767Y708290D01*
G74*
D01*
G03X225350Y710707I2417J0*
G01*
D02*
G37*
G36*
X211433Y693790D02*
G75*
D01*
G03X213850Y691373I2417J0*
G01*
X213850Y691373D01*
X216704Y691373D01*
X216704Y698144D01*
X211433Y698144D01*
X211433Y693790D01*
D02*
G37*
G36*
X225350Y691373D02*
G75*
D01*
G03X227767Y693790I0J2417*
G01*
X227767Y693790D01*
X227767Y698144D01*
X222496Y698144D01*
X222496Y691373D01*
X225350Y691373D01*
D02*
G37*
G36*
X213850Y710707D02*
G75*
D01*
G03X211433Y708290I0J-2417*
G01*
X211433Y708290D01*
X211433Y703936D01*
X216704Y703936D01*
X216704Y710707D01*
X213850Y710707D01*
D02*
G37*
G36*
X399525Y675007D02*
G75*
D01*
G03X403192Y680320I-2015J5313*
G01*
X403192Y680320D01*
X403192Y684305D01*
X399525Y684305D01*
X399525Y675007D01*
D02*
G37*
G36*
X403192Y692320D02*
G74*
D01*
G03X399525Y697633I5682J0*
G01*
X399525Y697633D01*
X399525Y688335D01*
X403192Y688335D01*
X403192Y692320D01*
D02*
G37*
G36*
X395495Y697633D02*
G74*
D01*
G03X391828Y692320I2015J5313*
G01*
X391828Y692320D01*
X391828Y688335D01*
X395495Y688335D01*
X395495Y697633D01*
D02*
G37*
G36*
X391828Y680320D02*
G75*
D01*
G03X395495Y675007I5682J0*
G01*
X395495Y675007D01*
X395495Y684305D01*
X391828Y684305D01*
X391828Y680320D01*
D02*
G37*
G36*
X38575Y1229360D02*
G75*
D01*
G03X38575Y1229360I17545J0*
G01*
D02*
G37*
G36*
X95135Y675007D02*
G75*
D01*
G03X98802Y680320I-2015J5313*
G01*
X98802Y680320D01*
X98802Y684305D01*
X95135Y684305D01*
X95135Y675007D01*
D02*
G37*
G36*
X87438Y680320D02*
G75*
D01*
G03X91105Y675007I5682J0*
G01*
X91105Y675007D01*
X91105Y684305D01*
X87438Y684305D01*
X87438Y680320D01*
D02*
G37*
G36*
X98802Y692320D02*
G74*
D01*
G03X95135Y697633I5682J0*
G01*
X95135Y697633D01*
X95135Y688335D01*
X98802Y688335D01*
X98802Y692320D01*
D02*
G37*
G36*
X91105Y697633D02*
G74*
D01*
G03X87438Y692320I2015J5313*
G01*
X87438Y692320D01*
X87438Y688335D01*
X91105Y688335D01*
X91105Y697633D01*
D02*
G37*
G36*
X557597Y696300D02*
G74*
D01*
G03X555180Y698717I2417J0*
G01*
X555180Y698717D01*
X537260Y698717D01*
X537260Y690380D01*
X557597Y690380D01*
X557597Y696300D01*
D02*
G37*
G36*
X533635Y508000D02*
G75*
D01*
G03X533635Y508000I17545J0*
G01*
D02*
G37*
G36*
X507763Y675300D02*
G75*
D01*
G03X510180Y672883I2417J0*
G01*
X510180Y672883D01*
X528100Y672883D01*
X528100Y681220D01*
X507763Y681220D01*
X507763Y675300D01*
D02*
G37*
G36*
X557597Y675300D02*
X557597Y675300D01*
X557597Y681220D01*
X537260Y681220D01*
X537260Y672883D01*
X555180Y672883D01*
G75*
D01*
G03X557597Y675300I0J2417*
G01*
D02*
G37*
G36*
X510180Y698717D02*
G75*
D01*
G03X507763Y696300I0J-2417*
G01*
X507763Y696300D01*
X507763Y690380D01*
X528100Y690380D01*
X528100Y698717D01*
X510180Y698717D01*
D02*
G37*
G36*
X181140Y727183D02*
G75*
D01*
G03X183557Y729600I0J2417*
G01*
X183557Y729600D01*
X183557Y733881D01*
X178609Y733881D01*
X178609Y727183D01*
X181140Y727183D01*
D02*
G37*
G36*
X170640Y746017D02*
G75*
D01*
G03X168223Y743600I0J-2417*
G01*
X168223Y743600D01*
X168223Y739319D01*
X173171Y739319D01*
X173171Y746017D01*
X170640Y746017D01*
D02*
G37*
G36*
X181140Y746017D02*
X181140Y746017D01*
X178609Y746017D01*
X178609Y739319D01*
X183557Y739319D01*
X183557Y743600D01*
G74*
D01*
G03X181140Y746017I2417J0*
G01*
D02*
G37*
G36*
X168223Y729600D02*
G75*
D01*
G03X170640Y727183I2417J0*
G01*
X170640Y727183D01*
X173171Y727183D01*
X173171Y733881D01*
X168223Y733881D01*
X168223Y729600D01*
D02*
G37*
G36*
X222130Y835913D02*
G75*
D01*
G03X224547Y838330I0J2417*
G01*
X224547Y838330D01*
X224547Y849950D01*
X219760Y849950D01*
X219760Y835913D01*
X222130Y835913D01*
D02*
G37*
G36*
X212130Y835913D02*
X212130Y835913D01*
X214500Y835913D01*
X214500Y849950D01*
X209713Y849950D01*
X209713Y838330D01*
G75*
D01*
G03X212130Y835913I2417J0*
G01*
D02*
G37*
G36*
X212130Y869247D02*
G75*
D01*
G03X209713Y866830I0J-2417*
G01*
X209713Y866830D01*
X209713Y855210D01*
X214500Y855210D01*
X214500Y869247D01*
X212130Y869247D01*
D02*
G37*
G36*
X224547Y866830D02*
G74*
D01*
G03X222130Y869247I2417J0*
G01*
X222130Y869247D01*
X219760Y869247D01*
X219760Y855210D01*
X224547Y855210D01*
X224547Y866830D01*
D02*
G37*
G36*
X201370Y1072373D02*
X201370Y1072373D01*
X204224Y1072373D01*
X204224Y1079144D01*
X198953Y1079144D01*
X198953Y1074790D01*
G75*
D01*
G03X201370Y1072373I2417J0*
G01*
D02*
G37*
G36*
X212870Y1072373D02*
G75*
D01*
G03X215287Y1074790I0J2417*
G01*
X215287Y1074790D01*
X215287Y1079144D01*
X210016Y1079144D01*
X210016Y1072373D01*
X212870Y1072373D01*
D02*
G37*
G36*
X201370Y1091707D02*
G75*
D01*
G03X198953Y1089290I0J-2417*
G01*
X198953Y1089290D01*
X198953Y1084936D01*
X204224Y1084936D01*
X204224Y1091707D01*
X201370Y1091707D01*
D02*
G37*
G36*
X215287Y1089290D02*
G74*
D01*
G03X212870Y1091707I2417J0*
G01*
X212870Y1091707D01*
X210016Y1091707D01*
X210016Y1084936D01*
X215287Y1084936D01*
X215287Y1089290D01*
D02*
G37*
G36*
X309050Y746017D02*
G75*
D01*
G03X306633Y743600I0J-2417*
G01*
X306633Y743600D01*
X306633Y739319D01*
X311581Y739319D01*
X311581Y746017D01*
X309050Y746017D01*
D02*
G37*
G36*
X321967Y743600D02*
G74*
D01*
G03X319550Y746017I2417J0*
G01*
X319550Y746017D01*
X317019Y746017D01*
X317019Y739319D01*
X321967Y739319D01*
X321967Y743600D01*
D02*
G37*
G36*
X319550Y727183D02*
G75*
D01*
G03X321967Y729600I0J2417*
G01*
X321967Y729600D01*
X321967Y733881D01*
X317019Y733881D01*
X317019Y727183D01*
X319550Y727183D01*
D02*
G37*
G36*
X309050Y727183D02*
X309050Y727183D01*
X311581Y727183D01*
X311581Y733881D01*
X306633Y733881D01*
X306633Y729600D01*
G75*
D01*
G03X309050Y727183I2417J0*
G01*
D02*
G37*
G36*
X259740Y795210D02*
X259740Y795210D01*
X249870Y795210D01*
X249870Y785340D01*
G74*
D01*
G03X259740Y795210I6030J15900*
G01*
D02*
G37*
G36*
X249870Y817140D02*
X249870Y817140D01*
X249870Y807270D01*
X259740Y807270D01*
G74*
D01*
G03X249870Y817140I15900J6030*
G01*
D02*
G37*
G36*
X294875Y843280D02*
G75*
D01*
G03X294875Y843280I17545J0*
G01*
D02*
G37*
G36*
X454620Y835913D02*
G75*
D01*
G03X457037Y838330I0J2417*
G01*
X457037Y838330D01*
X457037Y849950D01*
X452250Y849950D01*
X452250Y835913D01*
X454620Y835913D01*
D02*
G37*
G36*
X444620Y835913D02*
X444620Y835913D01*
X446990Y835913D01*
X446990Y849950D01*
X442203Y849950D01*
X442203Y838330D01*
G75*
D01*
G03X444620Y835913I2417J0*
G01*
D02*
G37*
G36*
X444620Y869247D02*
G75*
D01*
G03X442203Y866830I0J-2417*
G01*
X442203Y866830D01*
X442203Y855210D01*
X446990Y855210D01*
X446990Y869247D01*
X444620Y869247D01*
D02*
G37*
G36*
X457037Y866830D02*
G74*
D01*
G03X454620Y869247I2417J0*
G01*
X454620Y869247D01*
X452250Y869247D01*
X452250Y855210D01*
X457037Y855210D01*
X457037Y866830D01*
D02*
G37*
G36*
X294875Y1049020D02*
G75*
D01*
G03X294875Y1049020I17545J0*
G01*
D02*
G37*
G36*
X334940Y1068003D02*
X334940Y1068003D01*
X340860Y1068003D01*
X340860Y1088340D01*
X332523Y1088340D01*
X332523Y1070420D01*
G75*
D01*
G03X334940Y1068003I2417J0*
G01*
D02*
G37*
G36*
X355940Y1068003D02*
G75*
D01*
G03X358357Y1070420I0J2417*
G01*
X358357Y1070420D01*
X358357Y1088340D01*
X350020Y1088340D01*
X350020Y1068003D01*
X355940Y1068003D01*
D02*
G37*
G36*
X334940Y1117837D02*
G75*
D01*
G03X332523Y1115420I0J-2417*
G01*
X332523Y1115420D01*
X332523Y1097500D01*
X340860Y1097500D01*
X340860Y1117837D01*
X334940Y1117837D01*
D02*
G37*
G36*
X358357Y1115420D02*
G74*
D01*
G03X355940Y1117837I2417J0*
G01*
X355940Y1117837D01*
X350020Y1117837D01*
X350020Y1097500D01*
X358357Y1097500D01*
X358357Y1115420D01*
D02*
G37*
G36*
X259740Y1128210D02*
X259740Y1128210D01*
X249870Y1128210D01*
X249870Y1118340D01*
G74*
D01*
G03X259740Y1128210I6030J15900*
G01*
D02*
G37*
G36*
X249870Y1150140D02*
X249870Y1150140D01*
X249870Y1140270D01*
X259740Y1140270D01*
G74*
D01*
G03X249870Y1150140I15900J6030*
G01*
D02*
G37*
%LPD*%
G36*
X469900Y485157D02*
X469900Y485157D01*
X469900Y640080D01*
X34302Y640080D01*
X34302Y485157D01*
X469900Y485157D01*
D02*
G37*
%LPC*%
G36*
X264336Y490055D02*
G74*
D01*
G02X262752Y489098I2716J2705*
G01*
G75*
D01*
G02X261614Y488927I-1132J3662*
G01*
X261614Y488927D01*
X167640Y488927D01*
G75*
D01*
G02X166901Y488998I0J3833*
G01*
G74*
D01*
G02X164929Y490049I739J3762*
G01*
X164929Y490049D01*
X77709Y577269D01*
G75*
D01*
G02X76587Y579991I2711J2711*
G01*
X76587Y579991D01*
X76587Y613937D01*
G75*
D01*
G02X74597Y618320I3833J4383*
G01*
X74597Y618320D01*
X74597Y630320D01*
G75*
D01*
G02X86243Y630320I5823J0*
G01*
X86243Y630320D01*
X86243Y618320D01*
G75*
D01*
G02X84253Y613937I-5823J0*
G01*
X84253Y613937D01*
X84253Y581568D01*
X169228Y496593D01*
X260032Y496593D01*
X264411Y500972D01*
G75*
D01*
G02X263683Y502760I1829J1788*
G01*
X263683Y502760D01*
X263683Y522760D01*
G75*
D01*
G02X266240Y525317I2557J0*
G01*
X266240Y525317D01*
X272240Y525317D01*
G74*
D01*
G02X274797Y522760I0J2557*
G01*
X274797Y522760D01*
X274797Y502760D01*
G75*
D01*
G02X273073Y500342I-2557J0*
G01*
G74*
D01*
G02X271945Y497664I3833J38*
G01*
X271945Y497664D01*
X267105Y492823D01*
X267015Y492734D01*
X264336Y490055D01*
D02*
G37*
G36*
X433720Y626907D02*
G74*
D01*
G02X436277Y624350I0J2557*
G01*
X436277Y624350D01*
X436277Y613850D01*
G75*
D01*
G02X433720Y611293I-2557J0*
G01*
X433720Y611293D01*
X419720Y611293D01*
G75*
D01*
G02X417163Y613850I0J2557*
G01*
X417163Y613850D01*
X417163Y620487D01*
X403333Y620487D01*
X403333Y618320D01*
G75*
D01*
G02X391687Y618320I-5823J0*
G01*
X391687Y618320D01*
X391687Y630320D01*
G75*
D01*
G02X403333Y630320I5823J0*
G01*
X403333Y630320D01*
X403333Y628153D01*
X421500Y628153D01*
G74*
D01*
G02X424216Y627025I0J3833*
G01*
X424216Y627025D01*
X424334Y626907D01*
X433720Y626907D01*
D02*
G37*
G36*
X285533Y613937D02*
X285533Y613937D01*
X285533Y593648D01*
X291945Y587236D01*
G74*
D01*
G02X293073Y584520I2705J2716*
G01*
X293073Y584520D01*
X293073Y525178D01*
G74*
D01*
G02X294797Y522760I833J2418*
G01*
X294797Y522760D01*
X294797Y502760D01*
G75*
D01*
G02X292240Y500203I-2557J0*
G01*
X292240Y500203D01*
X286240Y500203D01*
G75*
D01*
G02X283683Y502760I0J2557*
G01*
X283683Y502760D01*
X283683Y522760D01*
G74*
D01*
G02X285407Y525178I2557J0*
G01*
X285407Y525178D01*
X285407Y582932D01*
X278989Y589349D01*
G75*
D01*
G02X277867Y592070I2711J2711*
G01*
X277867Y592070D01*
X277867Y613937D01*
G75*
D01*
G02X275877Y618320I3833J4383*
G01*
X275877Y618320D01*
X275877Y630320D01*
G75*
D01*
G02X287523Y630320I5823J0*
G01*
X287523Y630320D01*
X287523Y618320D01*
G75*
D01*
G02X285533Y613937I-5823J0*
G01*
D02*
G37*
G36*
X380413Y614502D02*
X380413Y614502D01*
X313073Y547162D01*
X313073Y525178D01*
G74*
D01*
G02X314797Y522760I833J2418*
G01*
X314797Y522760D01*
X314797Y502760D01*
G75*
D01*
G02X312240Y500203I-2557J0*
G01*
X312240Y500203D01*
X306240Y500203D01*
G75*
D01*
G02X303683Y502760I0J2557*
G01*
X303683Y502760D01*
X303683Y522760D01*
G74*
D01*
G02X305407Y525178I2557J0*
G01*
X305407Y525178D01*
X305407Y548741D01*
G75*
D01*
G02X306529Y551461I3833J9*
G01*
X306529Y551461D01*
X378987Y623918D01*
X378987Y630320D01*
G75*
D01*
G02X390633Y630320I5823J0*
G01*
X390633Y630320D01*
X390633Y618320D01*
G75*
D01*
G02X380413Y614502I-5823J0*
G01*
D02*
G37*
G36*
X310483Y594850D02*
X310483Y594850D01*
X310483Y597331D01*
X317271Y597331D01*
X317271Y592293D01*
X313040Y592293D01*
G75*
D01*
G02X310483Y594850I0J2557*
G01*
D02*
G37*
G36*
X329597Y594850D02*
G75*
D01*
G02X327040Y592293I-2557J0*
G01*
X327040Y592293D01*
X322809Y592293D01*
X322809Y597331D01*
X329597Y597331D01*
X329597Y594850D01*
D02*
G37*
G36*
X417163Y594850D02*
X417163Y594850D01*
X417163Y597331D01*
X423951Y597331D01*
X423951Y592293D01*
X419720Y592293D01*
G75*
D01*
G02X417163Y594850I0J2557*
G01*
D02*
G37*
G36*
X436277Y594850D02*
G75*
D01*
G02X433720Y592293I-2557J0*
G01*
X433720Y592293D01*
X429489Y592293D01*
X429489Y597331D01*
X436277Y597331D01*
X436277Y594850D01*
D02*
G37*
G36*
X300223Y618320D02*
G75*
D01*
G02X288577Y618320I-5823J0*
G01*
X288577Y618320D01*
X288577Y630320D01*
G75*
D01*
G02X300223Y630320I5823J0*
G01*
X300223Y630320D01*
X300223Y628153D01*
X314820Y628153D01*
G74*
D01*
G02X317536Y627025I0J3833*
G01*
X317536Y627025D01*
X317654Y626907D01*
X327040Y626907D01*
G74*
D01*
G02X329597Y624350I0J2557*
G01*
X329597Y624350D01*
X329597Y613850D01*
G75*
D01*
G02X327040Y611293I-2557J0*
G01*
X327040Y611293D01*
X313040Y611293D01*
G75*
D01*
G02X310483Y613850I0J2557*
G01*
X310483Y613850D01*
X310483Y620487D01*
X300223Y620487D01*
X300223Y618320D01*
D02*
G37*
G36*
X313040Y607907D02*
X313040Y607907D01*
X317271Y607907D01*
X317271Y602869D01*
X310483Y602869D01*
X310483Y605350D01*
G75*
D01*
G02X313040Y607907I2557J0*
G01*
D02*
G37*
G36*
X329597Y605350D02*
X329597Y605350D01*
X329597Y602869D01*
X322809Y602869D01*
X322809Y607907D01*
X327040Y607907D01*
G74*
D01*
G02X329597Y605350I0J2557*
G01*
D02*
G37*
G36*
X419720Y607907D02*
X419720Y607907D01*
X423951Y607907D01*
X423951Y602869D01*
X417163Y602869D01*
X417163Y605350D01*
G75*
D01*
G02X419720Y607907I2557J0*
G01*
D02*
G37*
G36*
X436277Y605350D02*
X436277Y605350D01*
X436277Y602869D01*
X429489Y602869D01*
X429489Y607907D01*
X433720Y607907D01*
G74*
D01*
G02X436277Y605350I0J2557*
G01*
D02*
G37*
G36*
X238110Y626907D02*
G74*
D01*
G02X240667Y624350I0J2557*
G01*
X240667Y624350D01*
X240667Y613850D01*
G75*
D01*
G02X238110Y611293I-2557J0*
G01*
X238110Y611293D01*
X224110Y611293D01*
G75*
D01*
G02X221553Y613850I0J2557*
G01*
X221553Y613850D01*
X221553Y620487D01*
X202643Y620487D01*
X202643Y618320D01*
G75*
D01*
G02X190997Y618320I-5823J0*
G01*
X190997Y618320D01*
X190997Y630320D01*
G75*
D01*
G02X202643Y630320I5823J0*
G01*
X202643Y630320D01*
X202643Y628153D01*
X225890Y628153D01*
G74*
D01*
G02X228606Y627025I0J3833*
G01*
X228606Y627025D01*
X228724Y626907D01*
X238110Y626907D01*
D02*
G37*
G36*
X38335Y508000D02*
G75*
D01*
G02X38335Y508000I17545J0*
G01*
D02*
G37*
G36*
X226240Y525317D02*
X226240Y525317D01*
X227269Y525317D01*
X227269Y514731D01*
X223683Y514731D01*
X223683Y522760D01*
G75*
D01*
G02X226240Y525317I2557J0*
G01*
D02*
G37*
G36*
X234797Y522760D02*
X234797Y522760D01*
X234797Y514731D01*
X231211Y514731D01*
X231211Y525317D01*
X232240Y525317D01*
G74*
D01*
G02X234797Y522760I0J2557*
G01*
D02*
G37*
G36*
X232240Y500203D02*
X232240Y500203D01*
X231211Y500203D01*
X231211Y510789D01*
X234797Y510789D01*
X234797Y502760D01*
G75*
D01*
G02X232240Y500203I-2557J0*
G01*
D02*
G37*
G36*
X226240Y500203D02*
G75*
D01*
G02X223683Y502760I0J2557*
G01*
X223683Y502760D01*
X223683Y510789D01*
X227269Y510789D01*
X227269Y500203D01*
X226240Y500203D01*
D02*
G37*
G36*
X187953Y613937D02*
X187953Y613937D01*
X187953Y604868D01*
X251945Y540876D01*
G74*
D01*
G02X253073Y538160I2705J2716*
G01*
X253073Y538160D01*
X253073Y525178D01*
G74*
D01*
G02X254797Y522760I833J2418*
G01*
X254797Y522760D01*
X254797Y502760D01*
G75*
D01*
G02X252240Y500203I-2557J0*
G01*
X252240Y500203D01*
X246240Y500203D01*
G75*
D01*
G02X243683Y502760I0J2557*
G01*
X243683Y502760D01*
X243683Y522760D01*
G74*
D01*
G02X245407Y525178I2557J0*
G01*
X245407Y525178D01*
X245407Y536572D01*
X181409Y600569D01*
G75*
D01*
G02X180287Y603288I2711J2711*
G01*
X180287Y603288D01*
X180287Y613937D01*
G75*
D01*
G02X178297Y618320I3833J4383*
G01*
X178297Y618320D01*
X178297Y630320D01*
G75*
D01*
G02X189943Y630320I5823J0*
G01*
X189943Y630320D01*
X189943Y618320D01*
G75*
D01*
G02X187953Y613937I-5823J0*
G01*
D02*
G37*
G36*
X112773Y594850D02*
X112773Y594850D01*
X112773Y597331D01*
X119561Y597331D01*
X119561Y592293D01*
X115330Y592293D01*
G75*
D01*
G02X112773Y594850I0J2557*
G01*
D02*
G37*
G36*
X131887Y594850D02*
G75*
D01*
G02X129330Y592293I-2557J0*
G01*
X129330Y592293D01*
X125099Y592293D01*
X125099Y597331D01*
X131887Y597331D01*
X131887Y594850D01*
D02*
G37*
G36*
X240667Y594850D02*
G75*
D01*
G02X238110Y592293I-2557J0*
G01*
X238110Y592293D01*
X233879Y592293D01*
X233879Y597331D01*
X240667Y597331D01*
X240667Y594850D01*
D02*
G37*
G36*
X221553Y594850D02*
X221553Y594850D01*
X221553Y597331D01*
X228341Y597331D01*
X228341Y592293D01*
X224110Y592293D01*
G75*
D01*
G02X221553Y594850I0J2557*
G01*
D02*
G37*
G36*
X98943Y618320D02*
G75*
D01*
G02X87297Y618320I-5823J0*
G01*
X87297Y618320D01*
X87297Y630320D01*
G75*
D01*
G02X98943Y630320I5823J0*
G01*
X98943Y630320D01*
X98943Y628153D01*
X117110Y628153D01*
G74*
D01*
G02X119826Y627025I0J3833*
G01*
X119826Y627025D01*
X119944Y626907D01*
X129330Y626907D01*
G74*
D01*
G02X131887Y624350I0J2557*
G01*
X131887Y624350D01*
X131887Y613850D01*
G75*
D01*
G02X129330Y611293I-2557J0*
G01*
X129330Y611293D01*
X115330Y611293D01*
G75*
D01*
G02X112773Y613850I0J2557*
G01*
X112773Y613850D01*
X112773Y620487D01*
X98943Y620487D01*
X98943Y618320D01*
D02*
G37*
G36*
X115330Y607907D02*
X115330Y607907D01*
X119561Y607907D01*
X119561Y602869D01*
X112773Y602869D01*
X112773Y605350D01*
G75*
D01*
G02X115330Y607907I2557J0*
G01*
D02*
G37*
G36*
X131887Y605350D02*
X131887Y605350D01*
X131887Y602869D01*
X125099Y602869D01*
X125099Y607907D01*
X129330Y607907D01*
G74*
D01*
G02X131887Y605350I0J2557*
G01*
D02*
G37*
G36*
X240667Y605350D02*
X240667Y605350D01*
X240667Y602869D01*
X233879Y602869D01*
X233879Y607907D01*
X238110Y607907D01*
G74*
D01*
G02X240667Y605350I0J2557*
G01*
D02*
G37*
G36*
X224110Y607907D02*
X224110Y607907D01*
X228341Y607907D01*
X228341Y602869D01*
X221553Y602869D01*
X221553Y605350D01*
G75*
D01*
G02X224110Y607907I2557J0*
G01*
D02*
G37*
%LPD*%
G36*
X287020Y937973D02*
X287020Y937973D01*
X287020Y883920D01*
X227009Y883920D01*
X227009Y906570D01*
X204240Y906570D01*
X204240Y883920D01*
X184220Y883920D01*
X184220Y906570D01*
X161451Y906570D01*
X161451Y883920D01*
X66464Y883920D01*
X66464Y1001268D01*
X72662Y1008707D01*
X79956Y1016000D01*
X161451Y1016000D01*
X161451Y997430D01*
X184220Y997430D01*
X184220Y1016000D01*
X204240Y1016000D01*
X204240Y997430D01*
X227009Y997430D01*
X227009Y1016000D01*
X287020Y1016000D01*
X287020Y951787D01*
G75*
D01*
G03X287020Y937973I-1140J-6907*
G01*
D02*
G37*
%LPC*%
G36*
X269045Y951265D02*
X269045Y951265D01*
X279495Y951265D01*
X279495Y961715D01*
G74*
D01*
G03X269045Y951265I6385J16835*
G01*
D02*
G37*
G36*
X279495Y928045D02*
X279495Y928045D01*
X279495Y938495D01*
X269045Y938495D01*
G74*
D01*
G03X279495Y928045I16835J6385*
G01*
D02*
G37*
G36*
X227009Y949580D02*
G74*
D01*
G03X226075Y952500I5029J0*
G01*
G75*
D01*
G03X227009Y955420I-4095J2920*
G01*
X227009Y955420D01*
X227009Y977410D01*
X204240Y977410D01*
X204240Y926590D01*
X227009Y926590D01*
X227009Y949580D01*
D02*
G37*
G36*
X162385Y952500D02*
G74*
D01*
G03X161451Y949580I4095J2920*
G01*
X161451Y949580D01*
X161451Y926590D01*
X184220Y926590D01*
X184220Y977410D01*
X161451Y977410D01*
X161451Y955420D01*
G75*
D01*
G03X162385Y952500I5029J0*
G01*
D02*
G37*
%LPD*%
G36*
X335280Y951739D02*
X335280Y951739D01*
X335280Y1016000D01*
X393941Y1016000D01*
X393941Y997430D01*
X416710Y997430D01*
X416710Y1016000D01*
X436730Y1016000D01*
X436730Y997430D01*
X459499Y997430D01*
X459499Y1016000D01*
X515620Y1016000D01*
X515620Y883920D01*
X459499Y883920D01*
X459499Y906570D01*
X436730Y906570D01*
X436730Y883920D01*
X416710Y883920D01*
X416710Y906570D01*
X393941Y906570D01*
X393941Y883920D01*
X335280Y883920D01*
X335280Y938021D01*
G75*
D01*
G03X335280Y951739I-1400J6859*
G01*
D02*
G37*
%LPC*%
G36*
X340265Y961715D02*
X340265Y961715D01*
X340265Y951265D01*
X350715Y951265D01*
G74*
D01*
G03X340265Y961715I16835J6385*
G01*
D02*
G37*
G36*
X350715Y938495D02*
X350715Y938495D01*
X340265Y938495D01*
X340265Y928045D01*
G74*
D01*
G03X350715Y938495I6385J16835*
G01*
D02*
G37*
G36*
X459499Y949580D02*
G74*
D01*
G03X458565Y952500I5029J0*
G01*
G75*
D01*
G03X459499Y955420I-4095J2920*
G01*
X459499Y955420D01*
X459499Y977410D01*
X436730Y977410D01*
X436730Y926590D01*
X459499Y926590D01*
X459499Y949580D01*
D02*
G37*
G36*
X394875Y952500D02*
G74*
D01*
G03X393941Y949580I4095J2920*
G01*
X393941Y949580D01*
X393941Y926590D01*
X416710Y926590D01*
X416710Y977410D01*
X393941Y977410D01*
X393941Y955420D01*
G75*
D01*
G03X394875Y952500I5029J0*
G01*
D02*
G37*
%LPD*%
G54D11*
X74989Y693991D02*
G74*
D01*
G03X74738Y692320I5431J1671*
G01*
X74738Y680320D01*
G75*
D01*
G03X86102Y680320I5682J0*
G01*
X86102Y692320D01*
G74*
D01*
G03X85851Y693991I5682J0*
G01*
X85851Y733450D01*
G74*
D01*
G03X84937Y736466I5431J0*
G01*
X84937Y743600D01*
G74*
D01*
G03X82701Y746010I2417J0*
G01*
X82701Y806650D01*
G74*
D01*
G03X81104Y810497I5431J0*
G01*
X63851Y827750D01*
X63851Y879387D01*
G75*
D01*
G03X66040Y878886I2189J4533*
G01*
X287020Y878886D01*
G75*
D01*
G03X292054Y883920I0J5034*
G01*
X292054Y929035D01*
G75*
D01*
G03X292054Y960725I-6174J15845*
G01*
X292054Y1016000D01*
G74*
D01*
G03X287020Y1021034I5034J0*
G01*
X223778Y1021034D01*
G74*
D01*
G03X221980Y1021837I1798J1614*
G01*
X188777Y1021837D01*
X208463Y1041523D01*
X208463Y1038170D01*
G75*
D01*
G03X210880Y1035753I2417J0*
G01*
X223380Y1035753D01*
G75*
D01*
G03X225797Y1038170I0J2417*
G01*
X225797Y1066670D01*
G74*
D01*
G03X223380Y1069087I2417J0*
G01*
X210880Y1069087D01*
G75*
D01*
G03X208463Y1066670I0J-2417*
G01*
X208463Y1056796D01*
G74*
D01*
G03X207840Y1056260I3217J4376*
G01*
X181430Y1029851D01*
X77000Y1029851D01*
G75*
D01*
G03X75832Y1029724I0J-5431*
G01*
G74*
D01*
G03X73160Y1028260I1168J5304*
G01*
X54580Y1009680D01*
G75*
D01*
G03X52989Y1005828I3840J-3840*
G01*
X52989Y825509D01*
G75*
D01*
G03X54580Y821660I5431J-9*
G01*
X71839Y804400D01*
X71839Y746010D01*
G74*
D01*
G03X69603Y743600I181J2410*
G01*
X69603Y729600D01*
G75*
D01*
G03X72020Y727183I2417J0*
G01*
X74989Y727183D01*
X74989Y693991D01*
X325338Y1209040D02*
X325338Y1202342D01*
X217040Y1202342D01*
G75*
D01*
G03X215755Y1202301I0J-20102*
G01*
G74*
D01*
G03X202826Y1196454I1285J20061*
G01*
X198807Y1192435D01*
X157116Y1150744D01*
G75*
D01*
G03X151228Y1136504I14214J-14214*
G01*
X151228Y1052420D01*
G75*
D01*
G03X191432Y1052420I20102J0*
G01*
X191432Y1072373D01*
X194870Y1072373D01*
G75*
D01*
G03X197287Y1074790I0J2417*
G01*
X197287Y1089290D01*
G74*
D01*
G03X194870Y1091707I2417J0*
G01*
X191432Y1091707D01*
X191432Y1128204D01*
X225366Y1162138D01*
X325338Y1162138D01*
X325338Y1158240D01*
G75*
D01*
G03X365542Y1158240I20102J0*
G01*
X365542Y1162138D01*
X391854Y1162138D01*
X414238Y1139754D01*
X414238Y1133546D01*
X389606Y1108914D01*
G75*
D01*
G03X383718Y1094679I14214J-14214*
G01*
X383718Y1052420D01*
G75*
D01*
G03X423922Y1052420I20102J0*
G01*
X423922Y1086374D01*
X448542Y1110994D01*
G75*
D01*
G03X454442Y1125220I-14202J14226*
G01*
X454442Y1148080D01*
G74*
D01*
G03X448542Y1162306I20102J0*
G01*
X418413Y1192435D01*
X414406Y1196442D01*
G74*
D01*
G03X400180Y1202342I14226J14202*
G01*
X365542Y1202342D01*
X365542Y1209040D01*
G75*
D01*
G03X325338Y1209040I-20102J0*
G01*
X300550Y727183D02*
G75*
D01*
G03X302967Y729600I0J2417*
G01*
X302967Y743600D01*
G74*
D01*
G03X300731Y746010I2417J0*
G01*
X300731Y752790D01*
X312130Y764189D01*
X358140Y764189D01*
G74*
D01*
G03X361987Y765786I0J5431*
G01*
X405154Y808953D01*
G75*
D01*
G03X406751Y812800I-3834J3847*
G01*
X406751Y835913D01*
X408820Y835913D01*
G75*
D01*
G03X411237Y838330I0J2417*
G01*
X411237Y866830D01*
G74*
D01*
G03X408820Y869247I2417J0*
G01*
X398820Y869247D01*
G75*
D01*
G03X396403Y866830I0J-2417*
G01*
X396403Y852387D01*
G75*
D01*
G03X395889Y850073I4917J-2307*
G01*
X395889Y815050D01*
X355890Y775051D01*
X309885Y775051D01*
G75*
D01*
G03X306040Y773460I-5J-5431*
G01*
X291460Y758880D01*
G75*
D01*
G03X289869Y755033I3840J-3840*
G01*
X289869Y746010D01*
G74*
D01*
G03X287633Y743600I181J2410*
G01*
X287633Y729600D01*
G75*
D01*
G03X288969Y727439I2417J0*
G01*
X288969Y693991D01*
G74*
D01*
G03X288718Y692320I5431J1671*
G01*
X288718Y680320D01*
G75*
D01*
G03X300082Y680320I5682J0*
G01*
X300082Y692320D01*
G74*
D01*
G03X299831Y693991I5682J0*
G01*
X299831Y727183D01*
X300550Y727183D01*
X456268Y1021034D02*
G74*
D01*
G03X454470Y1021837I1798J1614*
G01*
X398970Y1021837D01*
G75*
D01*
G03X397172Y1021034I0J-2417*
G01*
X335280Y1021034D01*
G75*
D01*
G03X330246Y1016000I0J-5034*
G01*
X330246Y961492D01*
G75*
D01*
G03X330246Y928268I3634J-16612*
G01*
X330246Y883920D01*
G75*
D01*
G03X335280Y878886I5034J0*
G01*
X515620Y878886D01*
G75*
D01*
G03X520654Y883920I0J5034*
G01*
X520654Y1016000D01*
G74*
D01*
G03X515620Y1021034I5034J0*
G01*
X456268Y1021034D01*
X202251Y728424D02*
G75*
D01*
G03X202557Y729600I-2111J1176*
G01*
X202557Y743600D01*
G74*
D01*
G03X200321Y746010I2417J0*
G01*
X200321Y793170D01*
G74*
D01*
G03X198724Y797017I5431J0*
G01*
X176761Y818980D01*
X176761Y835952D01*
G75*
D01*
G03X178747Y838330I-431J2378*
G01*
X178747Y866830D01*
G74*
D01*
G03X176330Y869247I2417J0*
G01*
X166330Y869247D01*
G75*
D01*
G03X163913Y866830I0J-2417*
G01*
X163913Y838330D01*
G75*
D01*
G03X165899Y835952I2417J0*
G01*
X165899Y816742D01*
G75*
D01*
G03X167490Y812890I5431J-12*
G01*
X189459Y790920D01*
X189459Y746010D01*
G74*
D01*
G03X187223Y743600I181J2410*
G01*
X187223Y729600D01*
G75*
D01*
G03X189640Y727183I2417J0*
G01*
X191389Y727183D01*
X191389Y693991D01*
G74*
D01*
G03X191138Y692320I5431J1671*
G01*
X191138Y680320D01*
G75*
D01*
G03X202502Y680320I5682J0*
G01*
X202502Y692320D01*
G74*
D01*
G03X202251Y693991I5682J0*
G01*
X202251Y728424D01*
X238409Y737126D02*
X238409Y710707D01*
X231850Y710707D01*
G75*
D01*
G03X229433Y708290I0J-2417*
G01*
X229433Y693790D01*
G75*
D01*
G03X231850Y691373I2417J0*
G01*
X238409Y691373D01*
X238409Y678531D01*
X226060Y678531D01*
G75*
D01*
G03X224489Y678299I0J-5431*
G01*
G74*
D01*
G03X222220Y676940I1571J5199*
G01*
X211110Y665831D01*
X189551Y665831D01*
X189551Y678649D01*
G75*
D01*
G03X189802Y680320I-5431J1671*
G01*
X189802Y692320D01*
G75*
D01*
G03X178438Y692320I-5682J0*
G01*
X178438Y680320D01*
G75*
D01*
G03X178689Y678649I5682J0*
G01*
X178689Y665831D01*
X162270Y665831D01*
X118579Y709522D01*
X101701Y726400D01*
X101701Y727190D01*
G75*
D01*
G03X103937Y729600I-181J2410*
G01*
X103937Y743600D01*
G74*
D01*
G03X101520Y746017I2417J0*
G01*
X91020Y746017D01*
G75*
D01*
G03X88603Y743600I0J-2417*
G01*
X88603Y729600D01*
G75*
D01*
G03X90839Y727190I2417J0*
G01*
X90839Y724161D01*
G75*
D01*
G03X92430Y720310I5431J-11*
G01*
X100304Y712435D01*
X156180Y656560D01*
G74*
D01*
G03X158270Y655259I3840J3840*
G01*
G75*
D01*
G03X160020Y654969I1750J5141*
G01*
X182872Y654969D01*
G75*
D01*
G03X182888Y654969I8J5431*
G01*
X213355Y654969D01*
G75*
D01*
G03X214503Y655090I5J5431*
G01*
G74*
D01*
G03X217207Y656566I1143J5310*
G01*
X228310Y667669D01*
X249210Y667669D01*
X260320Y656560D01*
G74*
D01*
G03X262589Y655201I3840J3840*
G01*
G75*
D01*
G03X264160Y654969I1571J5199*
G01*
X307335Y654969D01*
G75*
D01*
G03X308483Y655090I5J5431*
G01*
G74*
D01*
G03X311187Y656566I1143J5310*
G01*
X322290Y667669D01*
X348270Y667669D01*
X359380Y656560D01*
G74*
D01*
G03X361649Y655201I3840J3840*
G01*
G75*
D01*
G03X363220Y654969I1571J5199*
G01*
X406395Y654969D01*
G75*
D01*
G03X407248Y655035I5J5431*
G01*
G74*
D01*
G03X410247Y656566I848J5365*
G01*
X425474Y671793D01*
G74*
D01*
G03X426320Y672883I3834J3847*
G01*
X465180Y672883D01*
G75*
D01*
G03X467597Y675300I0J2417*
G01*
X467597Y696300D01*
G74*
D01*
G03X465180Y698717I2417J0*
G01*
X421484Y698717D01*
X406091Y714110D01*
X406091Y727190D01*
G75*
D01*
G03X408327Y729600I-181J2410*
G01*
X408327Y743600D01*
G74*
D01*
G03X405910Y746017I2417J0*
G01*
X395410Y746017D01*
G75*
D01*
G03X392993Y743600I0J-2417*
G01*
X392993Y729600D01*
G75*
D01*
G03X395229Y727190I2417J0*
G01*
X395229Y711870D01*
G75*
D01*
G03X396820Y708020I5431J-10*
G01*
X416209Y688630D01*
X416209Y677890D01*
X404150Y665831D01*
X365470Y665831D01*
X354367Y676934D01*
G74*
D01*
G03X351663Y678410I3847J3834*
G01*
G75*
D01*
G03X350515Y678531I-1143J-5310*
G01*
X320040Y678531D01*
G75*
D01*
G03X318469Y678299I0J-5431*
G01*
G74*
D01*
G03X316200Y676940I1571J5199*
G01*
X305090Y665831D01*
X287131Y665831D01*
X287131Y678649D01*
G75*
D01*
G03X287382Y680320I-5431J1671*
G01*
X287382Y692320D01*
G75*
D01*
G03X276018Y692320I-5682J0*
G01*
X276018Y680320D01*
G75*
D01*
G03X276269Y678649I5682J0*
G01*
X276269Y665831D01*
X266410Y665831D01*
X255307Y676934D01*
G74*
D01*
G03X252603Y678410I3847J3834*
G01*
G75*
D01*
G03X251455Y678531I-1143J-5310*
G01*
X249271Y678531D01*
X249271Y737126D01*
G75*
D01*
G03X238409Y737126I-5431J16114*
G01*
X390241Y693991D02*
X390241Y733450D01*
G74*
D01*
G03X389327Y736466I5431J0*
G01*
X389327Y743600D01*
G74*
D01*
G03X387091Y746010I2417J0*
G01*
X387091Y757870D01*
X393410Y764189D01*
X462280Y764189D01*
G74*
D01*
G03X466127Y765786I0J5431*
G01*
X477455Y777114D01*
X557554Y857213D01*
G75*
D01*
G03X559151Y861060I-3834J3847*
G01*
X559151Y1028700D01*
G74*
D01*
G03X557554Y1032547I5431J0*
G01*
X533847Y1056254D01*
G74*
D01*
G03X531729Y1057569I3847J3834*
G01*
G75*
D01*
G03X529993Y1057851I-1729J-5149*
G01*
X458287Y1057851D01*
X458287Y1066670D01*
G74*
D01*
G03X455870Y1069087I2417J0*
G01*
X443370Y1069087D01*
G75*
D01*
G03X440953Y1066670I0J-2417*
G01*
X440953Y1038170D01*
G75*
D01*
G03X443370Y1035753I2417J0*
G01*
X455870Y1035753D01*
G75*
D01*
G03X458287Y1038170I0J2417*
G01*
X458287Y1046989D01*
X527750Y1046989D01*
X548289Y1026450D01*
X548289Y863310D01*
X477455Y792476D01*
X460030Y775051D01*
X391167Y775051D01*
G75*
D01*
G03X387320Y773460I-7J-5431*
G01*
X377820Y763960D01*
G75*
D01*
G03X376229Y760111I3840J-3840*
G01*
X376229Y746010D01*
G74*
D01*
G03X373993Y743600I181J2410*
G01*
X373993Y729600D01*
G75*
D01*
G03X376410Y727183I2417J0*
G01*
X379379Y727183D01*
X379379Y693991D01*
G74*
D01*
G03X379128Y692320I5431J1671*
G01*
X379128Y680320D01*
G75*
D01*
G03X390492Y680320I5682J0*
G01*
X390492Y692320D01*
G74*
D01*
G03X390241Y693991I5682J0*
G01*
X237455Y804109D02*
G75*
D01*
G03X237455Y804109I6385J-2869*
G01*
X237810Y817140D02*
G74*
D01*
G03X227940Y807270I6030J15900*
G01*
X237810Y807270D01*
X237810Y817140D01*
X237810Y785340D02*
X237810Y795210D01*
X227940Y795210D01*
G74*
D01*
G03X237810Y785340I15900J6030*
G01*
X237455Y1137109D02*
G75*
D01*
G03X237455Y1137109I6385J-2869*
G01*
X237810Y1150140D02*
G74*
D01*
G03X227940Y1140270I6030J15900*
G01*
X237810Y1140270D01*
X237810Y1150140D01*
X237810Y1118340D02*
X237810Y1128210D01*
X227940Y1128210D01*
G74*
D01*
G03X237810Y1118340I15900J6030*
G01*
X536175Y1229360D02*
G75*
D01*
G03X536175Y1229360I17545J0*
G01*
X225350Y710707D02*
X222496Y710707D01*
X222496Y703936D01*
X227767Y703936D01*
X227767Y708290D01*
G74*
D01*
G03X225350Y710707I2417J0*
G01*
X211433Y693790D02*
G75*
D01*
G03X213850Y691373I2417J0*
G01*
X216704Y691373D01*
X216704Y698144D01*
X211433Y698144D01*
X211433Y693790D01*
X225350Y691373D02*
G75*
D01*
G03X227767Y693790I0J2417*
G01*
X227767Y698144D01*
X222496Y698144D01*
X222496Y691373D01*
X225350Y691373D01*
X213850Y710707D02*
G75*
D01*
G03X211433Y708290I0J-2417*
G01*
X211433Y703936D01*
X216704Y703936D01*
X216704Y710707D01*
X213850Y710707D01*
X399525Y675007D02*
G75*
D01*
G03X403192Y680320I-2015J5313*
G01*
X403192Y684305D01*
X399525Y684305D01*
X399525Y675007D01*
X403192Y692320D02*
G74*
D01*
G03X399525Y697633I5682J0*
G01*
X399525Y688335D01*
X403192Y688335D01*
X403192Y692320D01*
X395495Y697633D02*
G74*
D01*
G03X391828Y692320I2015J5313*
G01*
X391828Y688335D01*
X395495Y688335D01*
X395495Y697633D01*
X391828Y680320D02*
G75*
D01*
G03X395495Y675007I5682J0*
G01*
X395495Y684305D01*
X391828Y684305D01*
X391828Y680320D01*
X38575Y1229360D02*
G75*
D01*
G03X38575Y1229360I17545J0*
G01*
X95135Y675007D02*
G75*
D01*
G03X98802Y680320I-2015J5313*
G01*
X98802Y684305D01*
X95135Y684305D01*
X95135Y675007D01*
X87438Y680320D02*
G75*
D01*
G03X91105Y675007I5682J0*
G01*
X91105Y684305D01*
X87438Y684305D01*
X87438Y680320D01*
X98802Y692320D02*
G74*
D01*
G03X95135Y697633I5682J0*
G01*
X95135Y688335D01*
X98802Y688335D01*
X98802Y692320D01*
X91105Y697633D02*
G74*
D01*
G03X87438Y692320I2015J5313*
G01*
X87438Y688335D01*
X91105Y688335D01*
X91105Y697633D01*
X557597Y696300D02*
G74*
D01*
G03X555180Y698717I2417J0*
G01*
X537260Y698717D01*
X537260Y690380D01*
X557597Y690380D01*
X557597Y696300D01*
X533635Y508000D02*
G75*
D01*
G03X533635Y508000I17545J0*
G01*
X507763Y675300D02*
G75*
D01*
G03X510180Y672883I2417J0*
G01*
X528100Y672883D01*
X528100Y681220D01*
X507763Y681220D01*
X507763Y675300D01*
X557597Y675300D02*
X557597Y681220D01*
X537260Y681220D01*
X537260Y672883D01*
X555180Y672883D01*
G75*
D01*
G03X557597Y675300I0J2417*
G01*
X510180Y698717D02*
G75*
D01*
G03X507763Y696300I0J-2417*
G01*
X507763Y690380D01*
X528100Y690380D01*
X528100Y698717D01*
X510180Y698717D01*
X181140Y727183D02*
G75*
D01*
G03X183557Y729600I0J2417*
G01*
X183557Y733881D01*
X178609Y733881D01*
X178609Y727183D01*
X181140Y727183D01*
X170640Y746017D02*
G75*
D01*
G03X168223Y743600I0J-2417*
G01*
X168223Y739319D01*
X173171Y739319D01*
X173171Y746017D01*
X170640Y746017D01*
X181140Y746017D02*
X178609Y746017D01*
X178609Y739319D01*
X183557Y739319D01*
X183557Y743600D01*
G74*
D01*
G03X181140Y746017I2417J0*
G01*
X168223Y729600D02*
G75*
D01*
G03X170640Y727183I2417J0*
G01*
X173171Y727183D01*
X173171Y733881D01*
X168223Y733881D01*
X168223Y729600D01*
X222130Y835913D02*
G75*
D01*
G03X224547Y838330I0J2417*
G01*
X224547Y849950D01*
X219760Y849950D01*
X219760Y835913D01*
X222130Y835913D01*
X212130Y835913D02*
X214500Y835913D01*
X214500Y849950D01*
X209713Y849950D01*
X209713Y838330D01*
G75*
D01*
G03X212130Y835913I2417J0*
G01*
X212130Y869247D02*
G75*
D01*
G03X209713Y866830I0J-2417*
G01*
X209713Y855210D01*
X214500Y855210D01*
X214500Y869247D01*
X212130Y869247D01*
X224547Y866830D02*
G74*
D01*
G03X222130Y869247I2417J0*
G01*
X219760Y869247D01*
X219760Y855210D01*
X224547Y855210D01*
X224547Y866830D01*
X201370Y1072373D02*
X204224Y1072373D01*
X204224Y1079144D01*
X198953Y1079144D01*
X198953Y1074790D01*
G75*
D01*
G03X201370Y1072373I2417J0*
G01*
X212870Y1072373D02*
G75*
D01*
G03X215287Y1074790I0J2417*
G01*
X215287Y1079144D01*
X210016Y1079144D01*
X210016Y1072373D01*
X212870Y1072373D01*
X201370Y1091707D02*
G75*
D01*
G03X198953Y1089290I0J-2417*
G01*
X198953Y1084936D01*
X204224Y1084936D01*
X204224Y1091707D01*
X201370Y1091707D01*
X215287Y1089290D02*
G74*
D01*
G03X212870Y1091707I2417J0*
G01*
X210016Y1091707D01*
X210016Y1084936D01*
X215287Y1084936D01*
X215287Y1089290D01*
X309050Y746017D02*
G75*
D01*
G03X306633Y743600I0J-2417*
G01*
X306633Y739319D01*
X311581Y739319D01*
X311581Y746017D01*
X309050Y746017D01*
X321967Y743600D02*
G74*
D01*
G03X319550Y746017I2417J0*
G01*
X317019Y746017D01*
X317019Y739319D01*
X321967Y739319D01*
X321967Y743600D01*
X319550Y727183D02*
G75*
D01*
G03X321967Y729600I0J2417*
G01*
X321967Y733881D01*
X317019Y733881D01*
X317019Y727183D01*
X319550Y727183D01*
X309050Y727183D02*
X311581Y727183D01*
X311581Y733881D01*
X306633Y733881D01*
X306633Y729600D01*
G75*
D01*
G03X309050Y727183I2417J0*
G01*
X259740Y795210D02*
X249870Y795210D01*
X249870Y785340D01*
G74*
D01*
G03X259740Y795210I6030J15900*
G01*
X249870Y817140D02*
X249870Y807270D01*
X259740Y807270D01*
G74*
D01*
G03X249870Y817140I15900J6030*
G01*
X294875Y843280D02*
G75*
D01*
G03X294875Y843280I17545J0*
G01*
X454620Y835913D02*
G75*
D01*
G03X457037Y838330I0J2417*
G01*
X457037Y849950D01*
X452250Y849950D01*
X452250Y835913D01*
X454620Y835913D01*
X444620Y835913D02*
X446990Y835913D01*
X446990Y849950D01*
X442203Y849950D01*
X442203Y838330D01*
G75*
D01*
G03X444620Y835913I2417J0*
G01*
X444620Y869247D02*
G75*
D01*
G03X442203Y866830I0J-2417*
G01*
X442203Y855210D01*
X446990Y855210D01*
X446990Y869247D01*
X444620Y869247D01*
X457037Y866830D02*
G74*
D01*
G03X454620Y869247I2417J0*
G01*
X452250Y869247D01*
X452250Y855210D01*
X457037Y855210D01*
X457037Y866830D01*
X294875Y1049020D02*
G75*
D01*
G03X294875Y1049020I17545J0*
G01*
X334940Y1068003D02*
X340860Y1068003D01*
X340860Y1088340D01*
X332523Y1088340D01*
X332523Y1070420D01*
G75*
D01*
G03X334940Y1068003I2417J0*
G01*
X355940Y1068003D02*
G75*
D01*
G03X358357Y1070420I0J2417*
G01*
X358357Y1088340D01*
X350020Y1088340D01*
X350020Y1068003D01*
X355940Y1068003D01*
X334940Y1117837D02*
G75*
D01*
G03X332523Y1115420I0J-2417*
G01*
X332523Y1097500D01*
X340860Y1097500D01*
X340860Y1117837D01*
X334940Y1117837D01*
X358357Y1115420D02*
G74*
D01*
G03X355940Y1117837I2417J0*
G01*
X350020Y1117837D01*
X350020Y1097500D01*
X358357Y1097500D01*
X358357Y1115420D01*
X259740Y1128210D02*
X249870Y1128210D01*
X249870Y1118340D01*
G74*
D01*
G03X259740Y1128210I6030J15900*
G01*
X249870Y1150140D02*
X249870Y1140270D01*
X259740Y1140270D01*
G74*
D01*
G03X249870Y1150140I15900J6030*
G01*
X575298Y1249683D02*
X575298Y485157D01*
X477520Y485157D01*
X477520Y647700D01*
X34302Y647700D01*
X34302Y1249683D01*
X575298Y1249683D01*
X264336Y490055D02*
G74*
D01*
G02X262752Y489098I2716J2705*
G01*
G75*
D01*
G02X261614Y488927I-1132J3662*
G01*
X167640Y488927D01*
G75*
D01*
G02X166901Y488998I0J3833*
G01*
G74*
D01*
G02X164929Y490049I739J3762*
G01*
X77709Y577269D01*
G75*
D01*
G02X76587Y579991I2711J2711*
G01*
X76587Y613937D01*
G75*
D01*
G02X74597Y618320I3833J4383*
G01*
X74597Y630320D01*
G75*
D01*
G02X86243Y630320I5823J0*
G01*
X86243Y618320D01*
G75*
D01*
G02X84253Y613937I-5823J0*
G01*
X84253Y581568D01*
X169228Y496593D01*
X260032Y496593D01*
X264411Y500972D01*
G75*
D01*
G02X263683Y502760I1829J1788*
G01*
X263683Y522760D01*
G75*
D01*
G02X266240Y525317I2557J0*
G01*
X272240Y525317D01*
G74*
D01*
G02X274797Y522760I0J2557*
G01*
X274797Y502760D01*
G75*
D01*
G02X273073Y500342I-2557J0*
G01*
G74*
D01*
G02X271945Y497664I3833J38*
G01*
X267105Y492823D01*
X267015Y492734D01*
X264336Y490055D01*
X433720Y626907D02*
G74*
D01*
G02X436277Y624350I0J2557*
G01*
X436277Y613850D01*
G75*
D01*
G02X433720Y611293I-2557J0*
G01*
X419720Y611293D01*
G75*
D01*
G02X417163Y613850I0J2557*
G01*
X417163Y620487D01*
X403333Y620487D01*
X403333Y618320D01*
G75*
D01*
G02X391687Y618320I-5823J0*
G01*
X391687Y630320D01*
G75*
D01*
G02X403333Y630320I5823J0*
G01*
X403333Y628153D01*
X421500Y628153D01*
G74*
D01*
G02X424216Y627025I0J3833*
G01*
X424334Y626907D01*
X433720Y626907D01*
X285533Y613937D02*
X285533Y593648D01*
X291945Y587236D01*
G74*
D01*
G02X293073Y584520I2705J2716*
G01*
X293073Y525178D01*
G74*
D01*
G02X294797Y522760I833J2418*
G01*
X294797Y502760D01*
G75*
D01*
G02X292240Y500203I-2557J0*
G01*
X286240Y500203D01*
G75*
D01*
G02X283683Y502760I0J2557*
G01*
X283683Y522760D01*
G74*
D01*
G02X285407Y525178I2557J0*
G01*
X285407Y582932D01*
X278989Y589349D01*
G75*
D01*
G02X277867Y592070I2711J2711*
G01*
X277867Y613937D01*
G75*
D01*
G02X275877Y618320I3833J4383*
G01*
X275877Y630320D01*
G75*
D01*
G02X287523Y630320I5823J0*
G01*
X287523Y618320D01*
G75*
D01*
G02X285533Y613937I-5823J0*
G01*
X380413Y614502D02*
X313073Y547162D01*
X313073Y525178D01*
G74*
D01*
G02X314797Y522760I833J2418*
G01*
X314797Y502760D01*
G75*
D01*
G02X312240Y500203I-2557J0*
G01*
X306240Y500203D01*
G75*
D01*
G02X303683Y502760I0J2557*
G01*
X303683Y522760D01*
G74*
D01*
G02X305407Y525178I2557J0*
G01*
X305407Y548741D01*
G75*
D01*
G02X306529Y551461I3833J9*
G01*
X378987Y623918D01*
X378987Y630320D01*
G75*
D01*
G02X390633Y630320I5823J0*
G01*
X390633Y618320D01*
G75*
D01*
G02X380413Y614502I-5823J0*
G01*
X310483Y594850D02*
X310483Y597331D01*
X317271Y597331D01*
X317271Y592293D01*
X313040Y592293D01*
G75*
D01*
G02X310483Y594850I0J2557*
G01*
X329597Y594850D02*
G75*
D01*
G02X327040Y592293I-2557J0*
G01*
X322809Y592293D01*
X322809Y597331D01*
X329597Y597331D01*
X329597Y594850D01*
X417163Y594850D02*
X417163Y597331D01*
X423951Y597331D01*
X423951Y592293D01*
X419720Y592293D01*
G75*
D01*
G02X417163Y594850I0J2557*
G01*
X436277Y594850D02*
G75*
D01*
G02X433720Y592293I-2557J0*
G01*
X429489Y592293D01*
X429489Y597331D01*
X436277Y597331D01*
X436277Y594850D01*
X300223Y618320D02*
G75*
D01*
G02X288577Y618320I-5823J0*
G01*
X288577Y630320D01*
G75*
D01*
G02X300223Y630320I5823J0*
G01*
X300223Y628153D01*
X314820Y628153D01*
G74*
D01*
G02X317536Y627025I0J3833*
G01*
X317654Y626907D01*
X327040Y626907D01*
G74*
D01*
G02X329597Y624350I0J2557*
G01*
X329597Y613850D01*
G75*
D01*
G02X327040Y611293I-2557J0*
G01*
X313040Y611293D01*
G75*
D01*
G02X310483Y613850I0J2557*
G01*
X310483Y620487D01*
X300223Y620487D01*
X300223Y618320D01*
X313040Y607907D02*
X317271Y607907D01*
X317271Y602869D01*
X310483Y602869D01*
X310483Y605350D01*
G75*
D01*
G02X313040Y607907I2557J0*
G01*
X329597Y605350D02*
X329597Y602869D01*
X322809Y602869D01*
X322809Y607907D01*
X327040Y607907D01*
G74*
D01*
G02X329597Y605350I0J2557*
G01*
X419720Y607907D02*
X423951Y607907D01*
X423951Y602869D01*
X417163Y602869D01*
X417163Y605350D01*
G75*
D01*
G02X419720Y607907I2557J0*
G01*
X436277Y605350D02*
X436277Y602869D01*
X429489Y602869D01*
X429489Y607907D01*
X433720Y607907D01*
G74*
D01*
G02X436277Y605350I0J2557*
G01*
X238110Y626907D02*
G74*
D01*
G02X240667Y624350I0J2557*
G01*
X240667Y613850D01*
G75*
D01*
G02X238110Y611293I-2557J0*
G01*
X224110Y611293D01*
G75*
D01*
G02X221553Y613850I0J2557*
G01*
X221553Y620487D01*
X202643Y620487D01*
X202643Y618320D01*
G75*
D01*
G02X190997Y618320I-5823J0*
G01*
X190997Y630320D01*
G75*
D01*
G02X202643Y630320I5823J0*
G01*
X202643Y628153D01*
X225890Y628153D01*
G74*
D01*
G02X228606Y627025I0J3833*
G01*
X228724Y626907D01*
X238110Y626907D01*
X38335Y508000D02*
G75*
D01*
G02X38335Y508000I17545J0*
G01*
X226240Y525317D02*
X227269Y525317D01*
X227269Y514731D01*
X223683Y514731D01*
X223683Y522760D01*
G75*
D01*
G02X226240Y525317I2557J0*
G01*
X234797Y522760D02*
X234797Y514731D01*
X231211Y514731D01*
X231211Y525317D01*
X232240Y525317D01*
G74*
D01*
G02X234797Y522760I0J2557*
G01*
X232240Y500203D02*
X231211Y500203D01*
X231211Y510789D01*
X234797Y510789D01*
X234797Y502760D01*
G75*
D01*
G02X232240Y500203I-2557J0*
G01*
X226240Y500203D02*
G75*
D01*
G02X223683Y502760I0J2557*
G01*
X223683Y510789D01*
X227269Y510789D01*
X227269Y500203D01*
X226240Y500203D01*
X187953Y613937D02*
X187953Y604868D01*
X251945Y540876D01*
G74*
D01*
G02X253073Y538160I2705J2716*
G01*
X253073Y525178D01*
G74*
D01*
G02X254797Y522760I833J2418*
G01*
X254797Y502760D01*
G75*
D01*
G02X252240Y500203I-2557J0*
G01*
X246240Y500203D01*
G75*
D01*
G02X243683Y502760I0J2557*
G01*
X243683Y522760D01*
G74*
D01*
G02X245407Y525178I2557J0*
G01*
X245407Y536572D01*
X181409Y600569D01*
G75*
D01*
G02X180287Y603288I2711J2711*
G01*
X180287Y613937D01*
G75*
D01*
G02X178297Y618320I3833J4383*
G01*
X178297Y630320D01*
G75*
D01*
G02X189943Y630320I5823J0*
G01*
X189943Y618320D01*
G75*
D01*
G02X187953Y613937I-5823J0*
G01*
X112773Y594850D02*
X112773Y597331D01*
X119561Y597331D01*
X119561Y592293D01*
X115330Y592293D01*
G75*
D01*
G02X112773Y594850I0J2557*
G01*
X131887Y594850D02*
G75*
D01*
G02X129330Y592293I-2557J0*
G01*
X125099Y592293D01*
X125099Y597331D01*
X131887Y597331D01*
X131887Y594850D01*
X240667Y594850D02*
G75*
D01*
G02X238110Y592293I-2557J0*
G01*
X233879Y592293D01*
X233879Y597331D01*
X240667Y597331D01*
X240667Y594850D01*
X221553Y594850D02*
X221553Y597331D01*
X228341Y597331D01*
X228341Y592293D01*
X224110Y592293D01*
G75*
D01*
G02X221553Y594850I0J2557*
G01*
X98943Y618320D02*
G75*
D01*
G02X87297Y618320I-5823J0*
G01*
X87297Y630320D01*
G75*
D01*
G02X98943Y630320I5823J0*
G01*
X98943Y628153D01*
X117110Y628153D01*
G74*
D01*
G02X119826Y627025I0J3833*
G01*
X119944Y626907D01*
X129330Y626907D01*
G74*
D01*
G02X131887Y624350I0J2557*
G01*
X131887Y613850D01*
G75*
D01*
G02X129330Y611293I-2557J0*
G01*
X115330Y611293D01*
G75*
D01*
G02X112773Y613850I0J2557*
G01*
X112773Y620487D01*
X98943Y620487D01*
X98943Y618320D01*
X115330Y607907D02*
X119561Y607907D01*
X119561Y602869D01*
X112773Y602869D01*
X112773Y605350D01*
G75*
D01*
G02X115330Y607907I2557J0*
G01*
X131887Y605350D02*
X131887Y602869D01*
X125099Y602869D01*
X125099Y607907D01*
X129330Y607907D01*
G74*
D01*
G02X131887Y605350I0J2557*
G01*
X240667Y605350D02*
X240667Y602869D01*
X233879Y602869D01*
X233879Y607907D01*
X238110Y607907D01*
G74*
D01*
G02X240667Y605350I0J2557*
G01*
X224110Y607907D02*
X228341Y607907D01*
X228341Y602869D01*
X221553Y602869D01*
X221553Y605350D01*
G75*
D01*
G02X224110Y607907I2557J0*
G01*
X469900Y485157D02*
X469900Y640080D01*
X34302Y640080D01*
X34302Y485157D01*
X469900Y485157D01*
X340265Y961715D02*
X340265Y951265D01*
X350715Y951265D01*
G74*
D01*
G03X340265Y961715I16835J6385*
G01*
X350715Y938495D02*
X340265Y938495D01*
X340265Y928045D01*
G74*
D01*
G03X350715Y938495I6385J16835*
G01*
X459499Y949580D02*
G74*
D01*
G03X458565Y952500I5029J0*
G01*
G75*
D01*
G03X459499Y955420I-4095J2920*
G01*
X459499Y977410D01*
X436730Y977410D01*
X436730Y926590D01*
X459499Y926590D01*
X459499Y949580D01*
X394875Y952500D02*
G74*
D01*
G03X393941Y949580I4095J2920*
G01*
X393941Y926590D01*
X416710Y926590D01*
X416710Y977410D01*
X393941Y977410D01*
X393941Y955420D01*
G75*
D01*
G03X394875Y952500I5029J0*
G01*
X335280Y951739D02*
X335280Y1016000D01*
X393941Y1016000D01*
X393941Y997430D01*
X416710Y997430D01*
X416710Y1016000D01*
X436730Y1016000D01*
X436730Y997430D01*
X459499Y997430D01*
X459499Y1016000D01*
X515620Y1016000D01*
X515620Y883920D01*
X459499Y883920D01*
X459499Y906570D01*
X436730Y906570D01*
X436730Y883920D01*
X416710Y883920D01*
X416710Y906570D01*
X393941Y906570D01*
X393941Y883920D01*
X335280Y883920D01*
X335280Y938021D01*
G75*
D01*
G03X335280Y951739I-1400J6859*
G01*
X269045Y951265D02*
X279495Y951265D01*
X279495Y961715D01*
G74*
D01*
G03X269045Y951265I6385J16835*
G01*
X279495Y928045D02*
X279495Y938495D01*
X269045Y938495D01*
G74*
D01*
G03X279495Y928045I16835J6385*
G01*
X227009Y949580D02*
G74*
D01*
G03X226075Y952500I5029J0*
G01*
G75*
D01*
G03X227009Y955420I-4095J2920*
G01*
X227009Y977410D01*
X204240Y977410D01*
X204240Y926590D01*
X227009Y926590D01*
X227009Y949580D01*
X162385Y952500D02*
G74*
D01*
G03X161451Y949580I4095J2920*
G01*
X161451Y926590D01*
X184220Y926590D01*
X184220Y977410D01*
X161451Y977410D01*
X161451Y955420D01*
G75*
D01*
G03X162385Y952500I5029J0*
G01*
X287020Y937973D02*
X287020Y883920D01*
X227009Y883920D01*
X227009Y906570D01*
X204240Y906570D01*
X204240Y883920D01*
X184220Y883920D01*
X184220Y906570D01*
X161451Y906570D01*
X161451Y883920D01*
X66464Y883920D01*
X66464Y1001268D01*
X72662Y1008707D01*
X79956Y1016000D01*
X161451Y1016000D01*
X161451Y997430D01*
X184220Y997430D01*
X184220Y1016000D01*
X204240Y1016000D01*
X204240Y997430D01*
X227009Y997430D01*
X227009Y1016000D01*
X287020Y1016000D01*
X287020Y951787D01*
G75*
D01*
G03X287020Y937973I-1140J-6907*
G01*
X31744Y482600D02*
X577856Y482600D01*
X577856Y1252241D01*
X31744Y1252241D01*
X31744Y482600D01*
G54D12*
X421500Y624320D02*
X426720Y619100D01*
X397510Y624320D02*
X421500Y624320D01*
X225890Y624320D02*
X231110Y619100D01*
X196820Y624320D02*
X225890Y624320D01*
X184120Y624320D02*
X184120Y603280D01*
X249240Y538160D01*
X249240Y512760D01*
X384810Y624320D02*
X309240Y548750D01*
X309240Y512760D01*
X80420Y579980D02*
X80420Y624320D01*
X269240Y500380D02*
X261620Y492760D01*
X269240Y512760D02*
X269240Y500380D01*
X167640Y492760D02*
X80420Y579980D01*
X261620Y492760D02*
X167640Y492760D01*
X93120Y624320D02*
X117110Y624320D01*
X122330Y619100D01*
X289240Y512760D02*
X289240Y584520D01*
X281700Y592060D01*
X281700Y624320D01*
X294400Y624320D02*
X314820Y624320D01*
X320040Y619100D01*
G54D13*
X384810Y686320D02*
X384810Y733450D01*
X381660Y736600D01*
X194890Y793170D02*
X171330Y816730D01*
X171330Y852580D01*
X194890Y736600D02*
X194890Y793170D01*
X196820Y686320D02*
X196820Y734670D01*
X194890Y736600D01*
X553720Y861060D02*
X553720Y1028700D01*
X530000Y1052420D01*
X449620Y1052420D01*
X211680Y1052420D02*
X183680Y1024420D01*
X217130Y1052420D02*
X211680Y1052420D01*
X77270Y806650D02*
X77270Y736600D01*
X80420Y686320D02*
X80420Y733450D01*
X77270Y736600D01*
X381660Y736600D02*
X381660Y760120D01*
X391160Y769620D01*
X462280Y769620D01*
X553720Y861060D01*
X294400Y686320D02*
X294400Y735700D01*
X295300Y736600D02*
X295300Y755040D01*
X309880Y769620D01*
X358140Y769620D01*
X401320Y812800D01*
X401320Y850080D01*
X403820Y852580D01*
X243840Y753240D02*
X243840Y673100D01*
X251460Y673100D02*
X226060Y673100D01*
X264160Y660400D02*
X251460Y673100D01*
X226060Y673100D02*
X213360Y660400D01*
X307340Y660400D02*
X264160Y660400D01*
X213360Y660400D02*
X160020Y660400D01*
X281700Y686320D02*
X281700Y660640D01*
X320040Y673100D02*
X307340Y660400D01*
X160020Y660400D02*
X96270Y724150D01*
X184120Y661640D02*
X182880Y660400D01*
X184120Y686320D02*
X184120Y661640D01*
X350520Y673100D02*
X320040Y673100D01*
X96270Y724150D02*
X96270Y736600D01*
X363220Y660400D02*
X350520Y673100D01*
X406400Y660400D02*
X363220Y660400D01*
X421640Y675640D02*
X406400Y660400D01*
X421640Y690880D02*
X421640Y675640D01*
X400660Y711860D02*
X421640Y690880D01*
X400660Y736600D02*
X400660Y711860D01*
X58420Y825500D02*
X77270Y806650D01*
X77000Y1024420D02*
X58420Y1005840D01*
X183680Y1024420D02*
X77000Y1024420D01*
X58420Y1005840D02*
X58420Y825500D01*
G54D14*
X171330Y1136530D02*
X171330Y1052420D01*
X217040Y1182240D02*
X171330Y1136530D01*
X217040Y1182240D02*
X400180Y1182240D01*
X345440Y1158240D02*
X345440Y1209040D01*
X400180Y1182240D02*
X434340Y1148080D01*
X434340Y1125220D02*
X403820Y1094700D01*
X434340Y1148080D02*
X434340Y1125220D01*
X403820Y1094700D02*
X403820Y1052420D01*
G54D15*
X29204Y480060D02*
X29204Y557532D01*
X29204Y480060D02*
X84324Y480060D01*
X580396Y480060D02*
X525276Y480060D01*
X580396Y480060D02*
X580396Y557532D01*
X580396Y1254781D02*
X580396Y1177309D01*
X580396Y1254781D02*
X525276Y1254781D01*
X29204Y1254781D02*
X84324Y1254781D01*
X29204Y1254781D02*
X29204Y1177309D01*
X-20796Y480060D02*
X-120796Y480060D01*
X-70796Y430060D02*
X-70796Y530060D01*
X-108296Y480060D02*
G75*
D01*
G02X-108296Y480060I37500J0*
G01*
X630396Y480060D02*
X730396Y480060D01*
X680396Y430060D02*
X680396Y530060D01*
X642896Y480060D02*
G75*
D01*
G02X642896Y480060I37500J0*
G01*
X667896Y480060D02*
G75*
D01*
G02X667896Y480060I12500J0*
G01*
X-20796Y1254781D02*
X-120796Y1254781D01*
X-70796Y1204781D02*
X-70796Y1304781D01*
X-108296Y1254781D02*
G75*
D01*
G02X-108296Y1254781I37500J0*
G01*
X-95796Y1254781D02*
G75*
D01*
G02X-95796Y1254781I25000J0*
G01*
X-83296Y1254781D02*
G75*
D01*
G02X-83296Y1254781I12500J0*
G01*
X29204Y480060D02*
X29204Y557532D01*
X29204Y480060D02*
X84324Y480060D01*
X580396Y480060D02*
X525276Y480060D01*
X580396Y480060D02*
X580396Y557532D01*
X580396Y1254781D02*
X580396Y1177309D01*
X580396Y1254781D02*
X525276Y1254781D01*
X29204Y1254781D02*
X84324Y1254781D01*
X29204Y1254781D02*
X29204Y1177309D01*
X-20796Y480060D02*
X-120796Y480060D01*
X-70796Y430060D02*
X-70796Y530060D01*
X-108296Y480060D02*
G75*
D01*
G02X-108296Y480060I37500J0*
G01*
X630396Y480060D02*
X730396Y480060D01*
X680396Y430060D02*
X680396Y530060D01*
X642896Y480060D02*
G75*
D01*
G02X642896Y480060I37500J0*
G01*
X667896Y480060D02*
G75*
D01*
G02X667896Y480060I12500J0*
G01*
X-20796Y1254781D02*
X-120796Y1254781D01*
X-70796Y1204781D02*
X-70796Y1304781D01*
X-108296Y1254781D02*
G75*
D01*
G02X-108296Y1254781I37500J0*
G01*
X-95796Y1254781D02*
G75*
D01*
G02X-95796Y1254781I25000J0*
G01*
X-83296Y1254781D02*
G75*
D01*
G02X-83296Y1254781I12500J0*
G01*
G54D16*
X229240Y512760D03*
X249240Y512760D03*
X269240Y512760D03*
X289240Y512760D03*
X309240Y512760D03*
G54D17*
X189120Y1082040D03*
X207120Y1082040D03*
X219600Y701040D03*
X237600Y701040D03*
G54D18*
X295300Y736600D03*
X314300Y736600D03*
X381660Y736600D03*
X400660Y736600D03*
X77270Y736600D03*
X96270Y736600D03*
X175890Y736600D03*
X194890Y736600D03*
G54D19*
X333880Y944880D03*
X285880Y944880D03*
X243840Y801240D03*
X243840Y753240D03*
X243840Y1134240D03*
X243840Y1182240D03*
G54D20*
X281700Y624320D03*
X294400Y624320D03*
X281700Y686320D03*
X294400Y686320D03*
X384810Y624320D03*
X397510Y624320D03*
X384810Y686320D03*
X397510Y686320D03*
X80420Y624320D03*
X93120Y624320D03*
X80420Y686320D03*
X93120Y686320D03*
X184120Y624320D03*
X196820Y624320D03*
X184120Y686320D03*
X196820Y686320D03*
G54D21*
X320040Y600100D03*
X320040Y619100D03*
X426720Y600100D03*
X426720Y619100D03*
X122330Y600100D03*
X122330Y619100D03*
X231110Y600100D03*
X231110Y619100D03*
G54D22*
X442680Y685800D03*
X532680Y685800D03*
G54D23*
X171330Y1052420D03*
X217130Y1052420D03*
X403820Y1052420D03*
X449620Y1052420D03*
G54D24*
X194230Y987420D03*
X426720Y987420D03*
G54D25*
X171330Y852580D03*
X217130Y852580D03*
X403820Y852580D03*
X449620Y852580D03*
G54D26*
X194230Y916580D03*
X426720Y916580D03*
G54D27*
X345440Y1092920D03*
X345440Y1182920D03*

M02*
