G04 Generated by Ultiboard 14.1 *
%FSLAX34Y34*%
%MOMM*%

%ADD10C,0.0001*%
%ADD11C,0.2032*%
%ADD12C,0.1556*%
%ADD13C,0.2500*%
%ADD14C,0.2000*%
%ADD15C,0.6933*%
%ADD16C,0.2267*%
%ADD17C,0.5000*%
%ADD18C,0.1270*%
%ADD19C,0.0010*%


G04 ColorRGB FFFF00 for the following layer *
%LNSilkscreen Top*%
%LPD*%
G54D10*
G54D11*
X219240Y497760D02*
X319240Y497760D01*
X319240Y527760D01*
X219240Y527760D01*
X219240Y497760D01*
G54D12*
X196129Y1062040D02*
X194138Y1060040D01*
X192147Y1060040D01*
X190156Y1062040D01*
X190156Y1068040D01*
X192147Y1070040D01*
X194138Y1070040D01*
X196129Y1068040D01*
X200111Y1068040D02*
X202102Y1070040D01*
X202102Y1060040D01*
X199116Y1060040D02*
X205089Y1060040D01*
X296836Y715100D02*
X296836Y725100D01*
X300818Y725100D01*
X302809Y723100D01*
X302809Y722100D01*
X300818Y720100D01*
X296836Y720100D01*
X297831Y720100D02*
X302809Y715100D01*
X311769Y719100D02*
X305796Y719100D01*
X310773Y725100D01*
X310773Y715100D01*
X309778Y715100D02*
X311769Y715100D01*
X309050Y647356D02*
X317050Y647356D01*
X319050Y649347D01*
X319050Y651338D01*
X317050Y653329D01*
X309050Y653329D01*
X315050Y662289D02*
X315050Y656316D01*
X309050Y661293D01*
X319050Y661293D01*
X319050Y660298D02*
X319050Y662289D01*
X341540Y601636D02*
X331540Y601636D01*
X331540Y605618D01*
X333540Y607609D01*
X334540Y607609D01*
X336540Y605618D01*
X336540Y601636D01*
X336540Y602631D02*
X341540Y607609D01*
X341540Y614578D02*
X341540Y612587D01*
X339540Y610596D01*
X337540Y610596D01*
X336540Y611591D01*
X335540Y610596D01*
X333540Y610596D01*
X331540Y612587D01*
X331540Y614578D01*
X333540Y616569D01*
X335540Y616569D01*
X336540Y615573D01*
X337540Y616569D01*
X339540Y616569D01*
X341540Y614578D01*
X336540Y611591D02*
X336540Y615573D01*
X399124Y758100D02*
X399124Y748100D01*
X395142Y748100D01*
X393151Y750100D01*
X393151Y751100D01*
X395142Y753100D01*
X399124Y753100D01*
X398129Y753100D02*
X393151Y758100D01*
X389169Y749100D02*
X388173Y748100D01*
X386182Y748100D01*
X384191Y750100D01*
X384191Y752100D01*
X385187Y753100D01*
X384191Y754100D01*
X384191Y756100D01*
X386182Y758100D01*
X388173Y758100D01*
X389169Y757100D01*
X388173Y753100D02*
X385187Y753100D01*
X412160Y647356D02*
X420160Y647356D01*
X422160Y649347D01*
X422160Y651338D01*
X420160Y653329D01*
X412160Y653329D01*
X413160Y657311D02*
X412160Y658307D01*
X412160Y660298D01*
X414160Y662289D01*
X416160Y662289D01*
X417160Y661293D01*
X418160Y662289D01*
X420160Y662289D01*
X422160Y660298D01*
X422160Y658307D01*
X421160Y657311D01*
X417160Y658307D02*
X417160Y661293D01*
X448220Y601636D02*
X438220Y601636D01*
X438220Y605618D01*
X440220Y607609D01*
X441220Y607609D01*
X443220Y605618D01*
X443220Y601636D01*
X443220Y602631D02*
X448220Y607609D01*
X448220Y613582D02*
X443220Y613582D01*
X440220Y616569D01*
X438220Y616569D01*
X438220Y610596D01*
X440220Y610596D01*
X485689Y618300D02*
X483698Y616300D01*
X481707Y616300D01*
X479716Y618300D01*
X479716Y624300D01*
X481707Y626300D01*
X483698Y626300D01*
X485689Y624300D01*
X494649Y620300D02*
X488676Y620300D01*
X493653Y626300D01*
X493653Y616300D01*
X492658Y616300D02*
X494649Y616300D01*
X143830Y601636D02*
X133830Y601636D01*
X133830Y605618D01*
X135830Y607609D01*
X136830Y607609D01*
X138830Y605618D01*
X138830Y601636D01*
X138830Y602631D02*
X143830Y607609D01*
X133830Y616569D02*
X133830Y610596D01*
X137830Y610596D01*
X137830Y614578D01*
X139830Y616569D01*
X141830Y616569D01*
X143830Y614578D01*
X143830Y610596D01*
X107770Y647356D02*
X115770Y647356D01*
X117770Y649347D01*
X117770Y651338D01*
X115770Y653329D01*
X107770Y653329D01*
X109770Y657311D02*
X107770Y659302D01*
X117770Y659302D01*
X117770Y656316D02*
X117770Y662289D01*
X94734Y758100D02*
X94734Y748100D01*
X90752Y748100D01*
X88761Y750100D01*
X88761Y751100D01*
X90752Y753100D01*
X94734Y753100D01*
X93739Y753100D02*
X88761Y758100D01*
X84779Y750100D02*
X82788Y748100D01*
X82788Y758100D01*
X85774Y758100D02*
X79801Y758100D01*
X147730Y1018884D02*
X145730Y1016893D01*
X145730Y1014902D01*
X147730Y1012911D01*
X153730Y1012911D01*
X155730Y1014902D01*
X155730Y1016893D01*
X153730Y1018884D01*
X147730Y1018884D01*
X147730Y1014902D02*
X145730Y1012911D01*
X153730Y1008929D02*
X155730Y1006938D01*
X145730Y1006938D01*
X145730Y1009924D02*
X145730Y1003951D01*
X240730Y886116D02*
X242730Y888107D01*
X242730Y890098D01*
X240730Y892089D01*
X234730Y892089D01*
X232730Y890098D01*
X232730Y888107D01*
X234730Y886116D01*
X240730Y886116D01*
X240730Y890098D02*
X242730Y892089D01*
X234730Y895076D02*
X232730Y897067D01*
X232730Y899058D01*
X234730Y901049D01*
X235730Y901049D01*
X242730Y895076D01*
X242730Y901049D01*
X241730Y901049D01*
X230591Y721040D02*
X232582Y723040D01*
X234573Y723040D01*
X236564Y721040D01*
X236564Y715040D01*
X234573Y713040D01*
X232582Y713040D01*
X230591Y715040D01*
X226609Y714040D02*
X225613Y713040D01*
X223622Y713040D01*
X221631Y715040D01*
X221631Y717040D01*
X222627Y718040D01*
X221631Y719040D01*
X221631Y721040D01*
X223622Y723040D01*
X225613Y723040D01*
X226609Y722040D01*
X225613Y718040D02*
X222627Y718040D01*
X214670Y649546D02*
X222670Y649546D01*
X224670Y651537D01*
X224670Y653528D01*
X222670Y655519D01*
X214670Y655519D01*
X216670Y658506D02*
X214670Y660497D01*
X214670Y662488D01*
X216670Y664479D01*
X217670Y664479D01*
X224670Y658506D01*
X224670Y664479D01*
X223670Y664479D01*
X252610Y601636D02*
X242610Y601636D01*
X242610Y605618D01*
X244610Y607609D01*
X245610Y607609D01*
X247610Y605618D01*
X247610Y601636D01*
X247610Y602631D02*
X252610Y607609D01*
X242610Y615573D02*
X242610Y612587D01*
X244610Y610596D01*
X248610Y610596D01*
X250610Y610596D01*
X252610Y612587D01*
X252610Y614578D01*
X250610Y616569D01*
X248610Y616569D01*
X246610Y614578D01*
X246610Y612587D01*
X248610Y610596D01*
X193354Y758100D02*
X193354Y748100D01*
X189372Y748100D01*
X187381Y750100D01*
X187381Y751100D01*
X189372Y753100D01*
X193354Y753100D01*
X192359Y753100D02*
X187381Y758100D01*
X184394Y750100D02*
X182403Y748100D01*
X180412Y748100D01*
X178421Y750100D01*
X178421Y751100D01*
X184394Y758100D01*
X178421Y758100D01*
X178421Y757100D01*
X380220Y1018884D02*
X378220Y1016893D01*
X378220Y1014902D01*
X380220Y1012911D01*
X386220Y1012911D01*
X388220Y1014902D01*
X388220Y1016893D01*
X386220Y1018884D01*
X380220Y1018884D01*
X380220Y1014902D02*
X378220Y1012911D01*
X387220Y1008929D02*
X388220Y1007933D01*
X388220Y1005942D01*
X386220Y1003951D01*
X384220Y1003951D01*
X383220Y1004947D01*
X382220Y1003951D01*
X380220Y1003951D01*
X378220Y1005942D01*
X378220Y1007933D01*
X379220Y1008929D01*
X383220Y1007933D02*
X383220Y1004947D01*
X473220Y886116D02*
X475220Y888107D01*
X475220Y890098D01*
X473220Y892089D01*
X467220Y892089D01*
X465220Y890098D01*
X465220Y888107D01*
X467220Y886116D01*
X473220Y886116D01*
X473220Y890098D02*
X475220Y892089D01*
X471220Y901049D02*
X471220Y895076D01*
X465220Y900053D01*
X475220Y900053D01*
X475220Y899058D02*
X475220Y901049D01*
X277940Y1139911D02*
X275940Y1141902D01*
X275940Y1143893D01*
X277940Y1145884D01*
X283940Y1145884D01*
X285940Y1143893D01*
X285940Y1141902D01*
X283940Y1139911D01*
X283940Y1136924D02*
X285940Y1134933D01*
X285940Y1132942D01*
X283940Y1130951D01*
X282940Y1130951D01*
X275940Y1136924D01*
X275940Y1130951D01*
X276940Y1130951D01*
G54D13*
X177120Y1082040D02*
G75*
D01*
G02X177120Y1082040I1250J0*
G01*
X272200Y617570D02*
G75*
D01*
G02X272200Y617570I1250J0*
G01*
X375310Y617570D02*
G75*
D01*
G02X375310Y617570I1250J0*
G01*
X421430Y701300D02*
G75*
D01*
G02X421430Y701300I1250J0*
G01*
X70920Y617570D02*
G75*
D01*
G02X70920Y617570I1250J0*
G01*
X227130Y1064170D02*
G75*
D01*
G02X227130Y1064170I1250J0*
G01*
X160080Y840830D02*
G75*
D01*
G02X160080Y840830I1250J0*
G01*
X247100Y701040D02*
G75*
D01*
G02X247100Y701040I1250J0*
G01*
X174620Y617570D02*
G75*
D01*
G02X174620Y617570I1250J0*
G01*
X459620Y1064170D02*
G75*
D01*
G02X459620Y1064170I1250J0*
G01*
X392570Y840830D02*
G75*
D01*
G02X392570Y840830I1250J0*
G01*
X359690Y1202920D02*
G75*
D01*
G02X359690Y1202920I1250J0*
G01*
G54D14*
X304800Y731100D02*
X304800Y742100D01*
X304800Y731100D02*
X304800Y742100D01*
X274550Y636820D02*
X301550Y636820D01*
X301550Y673820D01*
X274550Y673820D01*
X274550Y636820D01*
X325540Y609600D02*
X314540Y609600D01*
X325540Y609600D02*
X314540Y609600D01*
X391160Y742100D02*
X391160Y731100D01*
X391160Y742100D02*
X391160Y731100D01*
X377660Y636820D02*
X404660Y636820D01*
X404660Y673820D01*
X377660Y673820D01*
X377660Y636820D01*
X432220Y609600D02*
X421220Y609600D01*
X432220Y609600D02*
X421220Y609600D01*
X461930Y737300D02*
X539180Y737300D01*
X461930Y634300D02*
X539180Y634300D01*
X436180Y660050D02*
X461930Y634300D01*
X436180Y671800D02*
X436180Y660050D01*
X436180Y711550D02*
X461930Y737300D01*
X436180Y699800D02*
X436180Y711550D01*
X539180Y634300D02*
X539180Y671800D01*
X539180Y737300D02*
X539180Y699800D01*
X127830Y609600D02*
X116830Y609600D01*
X127830Y609600D02*
X116830Y609600D01*
X73270Y636820D02*
X100270Y636820D01*
X100270Y673820D01*
X73270Y673820D01*
X73270Y636820D01*
X86770Y742100D02*
X86770Y731100D01*
X86770Y742100D02*
X86770Y731100D01*
X161730Y1034670D02*
X226730Y1034670D01*
X226980Y1034670D02*
X226980Y1023670D01*
X161730Y1023670D02*
X161730Y1034670D01*
X226730Y870580D02*
X161730Y870580D01*
X161730Y870580D02*
X161730Y879580D01*
X226730Y870580D02*
X226730Y879580D01*
X176970Y636820D02*
X203970Y636820D01*
X203970Y673820D01*
X176970Y673820D01*
X176970Y636820D01*
X236610Y609600D02*
X225610Y609600D01*
X236610Y609600D02*
X225610Y609600D01*
X185390Y742100D02*
X185390Y731100D01*
X185390Y742100D02*
X185390Y731100D01*
X394220Y1034670D02*
X459220Y1034670D01*
X459470Y1034670D02*
X459470Y1023670D01*
X394220Y1023670D02*
X394220Y1034670D01*
X459220Y870580D02*
X394220Y870580D01*
X394220Y870580D02*
X394220Y879580D01*
X459220Y870580D02*
X459220Y879580D01*
X396940Y1163670D02*
X396940Y1086420D01*
X293940Y1163670D02*
X293940Y1086420D01*
X319690Y1189420D02*
X293940Y1163670D01*
X331440Y1189420D02*
X319690Y1189420D01*
X371190Y1189420D02*
X396940Y1163670D01*
X359440Y1189420D02*
X371190Y1189420D01*
X293940Y1086420D02*
X331440Y1086420D01*
X396940Y1086420D02*
X359440Y1086420D01*
G54D15*
X377976Y508766D02*
X377976Y583051D01*
X422349Y508766D02*
X422349Y583051D01*
X377976Y545909D02*
X422349Y545909D01*
G54D16*
X522794Y495938D02*
X522794Y505609D01*
X517937Y510444D01*
X515509Y510444D01*
X510651Y505609D01*
X505794Y510444D01*
X503366Y510444D01*
X498509Y505609D01*
X498509Y498356D01*
X498509Y495938D01*
X510651Y498356D02*
X510651Y505609D01*
X498509Y498356D02*
X522794Y498356D01*
X522794Y517698D02*
X498509Y517698D01*
X498509Y527369D01*
X503366Y532204D01*
X505794Y532204D01*
X510651Y527369D01*
X510651Y517698D01*
X510651Y520116D02*
X522794Y532204D01*
X498509Y539458D02*
X510651Y546711D01*
X498509Y553964D01*
X510651Y546711D02*
X522794Y546711D01*
X510651Y570889D02*
X510651Y575724D01*
X517937Y575724D01*
X522794Y570889D01*
X522794Y566053D01*
X517937Y561218D01*
X503366Y561218D01*
X498509Y566053D01*
X498509Y575724D01*
X510651Y592649D02*
X510651Y597484D01*
X517937Y597484D01*
X522794Y592649D01*
X522794Y587813D01*
X517937Y582978D01*
X503366Y582978D01*
X498509Y587813D01*
X498509Y597484D01*
X522794Y604738D02*
X508223Y604738D01*
X498509Y609573D01*
X498509Y614409D01*
X508223Y619244D01*
X522794Y619244D01*
X515509Y604738D02*
X515509Y619244D01*
G54D17*
X280380Y645520D02*
G75*
D01*
G02X280380Y645520I2500J0*
G01*
X383490Y645520D02*
G75*
D01*
G02X383490Y645520I2500J0*
G01*
X79100Y645520D02*
G75*
D01*
G02X79100Y645520I2500J0*
G01*
X182800Y645520D02*
G75*
D01*
G02X182800Y645520I2500J0*
G01*
G54D18*
X29204Y480060D02*
X29204Y557532D01*
X29204Y480060D02*
X84324Y480060D01*
X580396Y480060D02*
X525276Y480060D01*
X580396Y480060D02*
X580396Y557532D01*
X580396Y1254781D02*
X580396Y1177309D01*
X580396Y1254781D02*
X525276Y1254781D01*
X29204Y1254781D02*
X84324Y1254781D01*
X29204Y1254781D02*
X29204Y1177309D01*
X-20796Y480060D02*
X-120796Y480060D01*
X-70796Y430060D02*
X-70796Y530060D01*
X-108296Y480060D02*
G75*
D01*
G02X-108296Y480060I37500J0*
G01*
X630396Y480060D02*
X730396Y480060D01*
X680396Y430060D02*
X680396Y530060D01*
X642896Y480060D02*
G75*
D01*
G02X642896Y480060I37500J0*
G01*
X667896Y480060D02*
G75*
D01*
G02X667896Y480060I12500J0*
G01*
X-20796Y1254781D02*
X-120796Y1254781D01*
X-70796Y1204781D02*
X-70796Y1304781D01*
X-108296Y1254781D02*
G75*
D01*
G02X-108296Y1254781I37500J0*
G01*
X-95796Y1254781D02*
G75*
D01*
G02X-95796Y1254781I25000J0*
G01*
X-83296Y1254781D02*
G75*
D01*
G02X-83296Y1254781I12500J0*
G01*
X29204Y480060D02*
X29204Y557532D01*
X29204Y480060D02*
X84324Y480060D01*
X580396Y480060D02*
X525276Y480060D01*
X580396Y480060D02*
X580396Y557532D01*
X580396Y1254781D02*
X580396Y1177309D01*
X580396Y1254781D02*
X525276Y1254781D01*
X29204Y1254781D02*
X84324Y1254781D01*
X29204Y1254781D02*
X29204Y1177309D01*
X-20796Y480060D02*
X-120796Y480060D01*
X-70796Y430060D02*
X-70796Y530060D01*
X-108296Y480060D02*
G75*
D01*
G02X-108296Y480060I37500J0*
G01*
X630396Y480060D02*
X730396Y480060D01*
X680396Y430060D02*
X680396Y530060D01*
X642896Y480060D02*
G75*
D01*
G02X642896Y480060I37500J0*
G01*
X667896Y480060D02*
G75*
D01*
G02X667896Y480060I12500J0*
G01*
X-20796Y1254781D02*
X-120796Y1254781D01*
X-70796Y1204781D02*
X-70796Y1304781D01*
X-108296Y1254781D02*
G75*
D01*
G02X-108296Y1254781I37500J0*
G01*
X-95796Y1254781D02*
G75*
D01*
G02X-95796Y1254781I25000J0*
G01*
X-83296Y1254781D02*
G75*
D01*
G02X-83296Y1254781I12500J0*
G01*
G54D19*
X31744Y482600D02*
X577856Y482600D01*
X577856Y1252241D01*
X31744Y1252241D01*
X31744Y482600D01*

M02*
